<svg width="406" height="163" viewBox="0 0 406 163" fill="none" xmlns="http://www.w3.org/2000/svg">
<path fill-rule="evenodd" clip-rule="evenodd" d="M135.591 160.6V130.111C135.591 129.534 135.764 129.042 136.104 128.637C136.452 128.231 136.906 128.03 137.475 128.03C138.794 128.03 139.449 128.723 139.449 130.103V141.518C140.969 139.466 143.095 138.438 145.839 138.438C148.435 138.438 150.496 139.249 152.028 140.859C153.559 142.477 154.326 144.582 154.326 147.182V160.6C154.326 161.928 153.666 162.595 152.352 162.595C151.84 162.595 151.397 162.39 151.02 161.989C150.652 161.587 150.467 161.129 150.467 160.604V147.739C150.467 143.824 148.776 141.862 145.392 141.862C143.71 141.862 142.292 142.415 141.157 143.504C140.023 144.598 139.449 145.983 139.449 147.653V160.604C139.449 161.928 138.794 162.595 137.475 162.595C136.963 162.595 136.521 162.39 136.149 161.989C135.78 161.583 135.591 161.12 135.591 160.6ZM168.636 159.167C170.905 159.167 172.613 158.25 173.748 156.415C174.71 154.891 175.185 152.937 175.185 150.558C175.185 148.259 174.693 146.31 173.703 144.705C172.51 142.812 170.819 141.862 168.636 141.862C166.395 141.862 164.692 142.795 163.525 144.66C162.566 146.237 162.087 148.203 162.087 150.558C162.087 152.908 162.566 154.858 163.525 156.415C164.692 158.25 166.395 159.167 168.636 159.167ZM168.636 162.595C165.458 162.595 162.882 161.35 160.916 158.871C159.126 156.587 158.228 153.817 158.228 150.558C158.228 147.273 159.126 144.467 160.916 142.161C162.852 139.683 165.429 138.438 168.636 138.438C171.876 138.438 174.461 139.683 176.397 142.161C178.163 144.438 179.044 147.24 179.044 150.558C179.044 153.847 178.15 156.615 176.356 158.871C174.42 161.35 171.848 162.595 168.636 162.595ZM192.314 159.167C194.583 159.167 196.291 158.25 197.425 156.415C198.388 154.891 198.863 152.937 198.863 150.558C198.863 148.259 198.371 146.31 197.38 144.705C196.188 142.812 194.497 141.862 192.314 141.862C190.073 141.862 188.369 142.795 187.207 144.66C186.244 146.237 185.769 148.203 185.769 150.558C185.769 152.908 186.244 154.858 187.207 156.415C188.369 158.25 190.073 159.167 192.314 159.167ZM192.314 162.595C189.136 162.595 186.564 161.35 184.598 158.871C182.804 156.587 181.906 153.817 181.906 150.558C181.906 147.273 182.804 144.467 184.598 142.161C186.534 139.683 189.108 138.438 192.314 138.438C195.554 138.438 198.143 139.683 200.079 142.161C201.841 144.438 202.726 147.24 202.726 150.558C202.726 153.847 201.828 156.615 200.034 158.871C198.098 161.35 195.526 162.595 192.314 162.595ZM206.801 160.6V129.939C206.801 128.665 207.427 128.03 208.684 128.03C210.004 128.03 210.659 128.694 210.659 130.034V146.81L219.797 139.044C220.297 138.639 220.817 138.438 221.365 138.438C222.472 138.438 223.02 139.044 223.02 140.264C223.02 140.822 222.791 141.284 222.328 141.669L213.198 148.903L223.634 159.118C224.146 159.638 224.408 160.272 224.408 161.034C224.408 162.075 223.86 162.595 222.758 162.595C222.037 162.595 221.374 162.276 220.764 161.64L210.659 151.143V160.6C210.659 161.928 210.004 162.595 208.684 162.595C208.173 162.595 207.735 162.39 207.358 161.989C206.989 161.583 206.801 161.12 206.801 160.6ZM229.266 150.558C229.266 152.887 229.713 154.808 230.618 156.329C231.687 158.22 233.325 159.167 235.533 159.167C237.908 159.167 239.665 158.278 240.791 156.501C241.754 155.005 242.233 153.023 242.233 150.558C242.233 148.231 241.754 146.282 240.791 144.705C239.665 142.812 237.995 141.862 235.791 141.862C233.473 141.862 231.76 142.784 230.658 144.619C229.729 146.142 229.266 148.117 229.266 150.558ZM245.961 140.433V160.6C245.961 161.928 245.346 162.595 244.117 162.595C243.618 162.595 243.2 162.435 242.848 162.115C242.492 161.8 242.291 161.321 242.233 160.686C242.233 160.944 242.233 160.396 242.233 159.04H242.144C240.447 161.407 238.15 162.595 235.243 162.595C232.134 162.595 229.676 161.337 227.861 158.827C226.223 156.574 225.404 153.847 225.404 150.648C225.404 147.473 226.272 144.696 228.009 142.333C229.946 139.74 232.461 138.438 235.553 138.438C238.126 138.438 240.382 139.495 242.32 141.604C242.32 140.208 242.499 139.327 242.86 138.974C243.221 138.618 243.651 138.438 244.138 138.438C245.355 138.438 245.961 139.101 245.961 140.433ZM251.167 160.6V130.111C251.167 129.534 251.338 129.042 251.678 128.637C252.026 128.231 252.481 128.03 253.051 128.03C254.37 128.03 255.025 128.723 255.025 130.103V141.518C256.544 139.466 258.67 138.438 261.414 138.438C264.011 138.438 266.071 139.249 267.603 140.859C269.135 142.477 269.9 144.582 269.9 147.182V160.6C269.9 161.928 269.245 162.595 267.926 162.595C267.414 162.595 266.972 162.39 266.6 161.989C266.231 161.587 266.043 161.129 266.043 160.604V147.739C266.043 143.824 264.351 141.862 260.968 141.862C259.284 141.862 257.868 142.415 256.733 143.504C255.599 144.598 255.025 145.983 255.025 147.653V160.604C255.025 161.928 254.37 162.595 253.051 162.595C252.539 162.595 252.101 162.39 251.723 161.989C251.355 161.583 251.167 161.12 251.167 160.6Z" fill="white"/>
<path fill-rule="evenodd" clip-rule="evenodd" d="M26.7865 133.416C85.4347 120.314 144.09 113.732 202.746 113.716C261.406 113.703 320.062 120.252 378.714 133.416L377.714 137.853C319.387 124.762 261.063 118.245 202.746 118.262C144.422 118.275 86.0973 124.819 27.7658 137.853L26.7865 133.416Z" fill="white"/>
<path fill-rule="evenodd" clip-rule="evenodd" d="M68.4851 20.1967C62.7602 21.5891 56.6075 22.8295 50.0301 23.9116C43.4516 24.9968 37.0672 25.5745 30.8777 25.6521C24.6851 25.7297 19.0734 25.0744 14.0447 23.682C9.01495 22.2853 5.26331 19.7332 2.7846 16.0183C2.16597 14.9372 1.62598 13.6182 1.16254 12.0748C0.852174 10.8333 0.540776 9.24796 0.233559 7.31553C-0.0778529 5.37785 -0.0778529 3.17387 0.233559 0.696213C0.233559 0.541031 0.388731 0.311417 0.695949 7.62939e-06C0.852179 7.62939e-06 1.08497 0.155182 1.39218 0.466591C2.32222 1.39244 3.98517 2.74817 6.38524 4.52542C8.78531 6.30791 12.0745 7.85554 16.2519 9.17039C20.4292 10.4852 25.6519 11.3366 31.9221 11.7267C38.1891 12.1115 45.6556 11.452 54.3227 9.75232L66.3965 7.42982C67.0151 7.2736 68.4075 7.11842 70.5748 6.96638C72.7411 6.8112 75.0636 7.04501 77.5371 7.66364C80.0158 8.28123 82.3372 9.48179 84.5045 11.259C86.6707 13.0405 87.9856 15.8631 88.449 19.7332C88.9156 24.6854 87.6008 30.1042 84.5045 35.9853C81.4082 41.8676 76.6112 46.8187 70.1114 50.8408C71.6559 51.3085 73.474 51.9638 75.5669 52.8152C77.6566 53.6677 79.589 54.8672 81.3715 56.4117C83.1487 57.9593 84.5821 59.8969 85.6631 62.2152C86.7483 64.5377 87.1342 67.4002 86.827 70.8079C86.3593 75.2966 84.8893 80.0936 82.4158 85.201C79.9371 90.3083 76.5336 94.8747 72.2001 98.8968C67.8675 102.919 62.6407 106.094 56.5299 108.415C50.4149 110.738 43.4894 111.434 35.7523 110.505C30.8001 109.575 26.6186 107.875 23.2151 105.397C20.1188 103.23 17.6034 100.253 15.6699 96.46C13.7375 92.6675 13.5446 87.4448 15.089 80.7898C16.1743 76.3001 18.3405 72.7414 21.5888 70.1117C24.8403 67.4778 28.4777 65.7005 32.4998 64.7705C32.9664 62.2928 33.6217 59.2374 34.4742 55.6001C35.3256 51.9638 36.2147 48.3674 37.1448 44.8076C38.0748 41.2447 38.9262 38.0331 39.6958 35.1706C40.4707 32.3071 41.0148 30.2594 41.3221 29.019C41.3221 28.5555 41.7897 28.0889 42.7145 27.6265C43.956 27.1631 45.7741 26.6189 48.17 26.0003C50.5711 25.3816 53.3193 25.0744 56.4156 25.0744C57.4966 25.0744 57.8814 25.693 57.5742 26.9303C56.6441 28.6341 55.2895 31.3781 53.5112 35.1706C51.7297 38.9632 50.1444 43.3376 48.7519 48.2898C47.8219 50.7632 47.089 53.3562 46.549 56.0635C46.0037 58.775 45.426 61.4456 44.8042 64.0743C50.3782 64.8491 54.4779 66.7816 57.1118 69.8778C57.419 70.1893 57.5742 70.4189 57.5742 70.5751C57.5742 70.8855 57.5333 71.5817 57.4599 72.6638C57.3823 73.749 57.2261 75.0229 56.9933 76.493C56.7595 77.963 56.489 79.3974 56.1817 80.7898C55.8703 82.1823 55.4855 83.1899 55.0189 83.8085L54.7893 84.0371C54.6341 83.5747 54.2441 82.8418 53.6265 81.8342C53.0079 80.8265 52.1963 79.8231 51.1887 78.8155C50.1852 77.812 48.9857 76.882 47.5933 76.0306C46.2009 75.1781 44.6522 74.7524 42.9483 74.7524L42.4859 80.3264C42.3297 80.7898 42.0183 81.0226 41.5559 81.0226C38.6148 80.8674 35.9851 79.7046 33.6636 77.5373C33.3522 77.2301 33.1593 76.9187 33.0817 76.6115C33.0041 76.3001 32.8112 75.9939 32.4998 75.6825C30.8001 76.9187 29.4444 78.9339 28.441 81.7188C27.4333 84.5048 26.9709 87.4039 27.0443 90.4226C27.1219 93.4413 27.8181 96.2262 29.1372 98.7825C30.452 101.334 32.5774 102.919 35.5185 103.542C44.3408 105.397 52.0778 103.771 58.7339 98.664C65.3888 93.5567 70.0338 85.9748 72.6635 75.9152C73.5936 71.8889 73.9417 68.564 73.7078 65.9301C73.474 63.3004 72.8554 61.1709 71.852 59.5488C70.8443 57.9226 69.6081 56.6853 68.137 55.8339C66.667 54.9815 65.2337 54.4006 63.8412 54.0934C62.7602 54.5558 61.0931 55.1377 58.8524 55.8339C56.6075 56.5301 54.8669 57.0334 53.6265 57.3406C53.3193 57.3406 53.0855 57.2631 52.9303 57.1121L52.4668 50.8408C52.4668 50.5336 52.7007 50.3784 53.1631 50.3784C53.9369 50.2222 55.3671 49.7965 57.4599 49.1003C59.5486 48.4041 61.7526 47.2821 64.074 45.7335C66.3965 44.1859 68.6781 42.0594 70.923 39.3479C73.1668 36.6407 74.8298 33.1963 75.915 29.019C76.2222 27.3193 76.2222 25.7706 75.915 24.3782C75.6046 23.1367 75.0227 22.0557 74.1744 21.1257C73.323 20.1967 71.8111 19.8108 69.6448 19.967C69.3376 19.967 69.1405 20.0037 69.0671 20.0813C68.9895 20.16 68.871 20.1967 68.719 20.1967H68.4851ZM5.1071 7.89222C5.1071 8.35986 5.26332 8.74467 5.57369 9.05609L6.96718 10.2147L7.66339 10.6782C8.12579 10.6782 8.5106 10.7557 8.82201 10.9109C8.82201 10.9109 8.97823 11.0671 9.28545 11.3786C9.44063 11.3786 9.67447 11.5296 9.98169 11.841L11.3783 12.5372L12.9993 13.2334C13.1556 13.5448 13.467 13.7378 13.9294 13.8154C14.3928 13.8929 14.7818 13.9296 15.089 13.9296H15.7853L16.018 14.1634H16.9481C17.4115 14.1634 17.6443 14.0859 17.6443 13.9296L18.1077 13.4672C17.8005 12.9996 17.5667 12.771 17.4115 12.771L16.018 12.0748H15.5556C15.5556 12.0748 15.4005 11.9962 15.089 11.841L14.1632 11.3786C14.1632 11.3786 14.0856 11.2999 13.9294 11.1447H13.467V10.9109C13.1556 10.7557 12.8483 10.6782 12.5369 10.6782L11.6069 10.2147C11.6069 9.90749 11.4517 9.75232 11.1445 9.75232C10.8331 9.59609 10.6035 9.51848 10.4483 9.51848H10.2145L9.51825 9.05609C9.51825 9.05609 9.36305 8.89986 9.05583 8.58845L7.66339 7.42982C7.04056 7.11842 6.65577 6.96638 6.49954 6.96638H6.03713C5.8809 6.96638 5.72572 7.04502 5.57369 7.19601L5.1071 7.89222ZM23.6817 74.0562C23.8337 73.9 23.9113 73.749 23.9113 73.5928C23.9113 73.4376 23.9889 73.2038 24.1441 72.8965L23.9113 72.6638C23.6041 72.2003 23.2927 71.9675 22.9855 71.9675C22.5189 71.9675 22.0554 72.2003 21.5888 72.6638C21.5888 72.9752 21.5155 73.1262 21.3592 73.1262C21.204 73.2824 21.1254 73.4376 21.1254 73.5928C20.9702 73.5928 20.8926 73.6305 20.8926 73.7081C20.8926 73.7857 20.8192 73.8266 20.663 73.8266C20.663 73.9786 20.5854 74.0562 20.4292 74.0562C20.1188 74.3676 19.9668 74.5962 19.9668 74.7524H19.733C19.733 75.0638 19.6554 75.219 19.5002 75.219V75.4486L18.804 76.1449C18.804 76.3001 18.7662 76.4563 18.6886 76.6115C18.611 76.7635 18.5743 76.9187 18.5743 77.0749V77.3077C18.5743 77.7711 18.5743 78.0039 18.5743 78.0039C18.4181 78.0039 18.3405 78.0416 18.3405 78.1192C18.3405 78.1968 18.2629 78.2335 18.1077 78.2335C18.1077 78.3898 18.07 78.5816 17.9924 78.8155C17.9148 79.0493 17.9515 79.2412 18.1077 79.3974L19.0367 79.8598C19.5002 79.8598 19.733 79.5526 19.733 78.9339V78.4673C20.0444 78.1601 20.1964 77.8487 20.1964 77.5373C20.3516 77.5373 20.4292 77.4639 20.4292 77.3077V77.0749C20.4292 76.9187 20.5078 76.8411 20.663 76.8411C20.663 76.8411 20.8192 76.7635 21.1254 76.6115L21.3592 76.3787V76.1449C21.3592 76.1449 21.5154 75.9939 21.8227 75.6825C22.133 75.371 22.2851 75.1414 22.2851 74.9863C22.2851 74.83 22.3627 74.7524 22.5189 74.7524L22.7517 74.5228C23.0589 74.5228 23.3703 74.3676 23.6817 74.0562ZM41.7897 33.8925C41.9407 34.0487 41.9816 34.2039 41.904 34.3591C41.8264 34.5153 41.9407 34.6663 42.2521 34.8225H43.1821C43.4894 34.8225 43.7997 34.6663 44.107 34.3591C44.107 34.3591 43.956 34.1263 43.6446 33.6628C43.956 33.6628 44.107 33.5077 44.107 33.1963C44.2632 33.0453 44.3408 32.8891 44.3408 32.7339V32.5001C44.497 32.5001 44.5746 32.4266 44.5746 32.2704C44.5746 32.2704 44.6522 32.1928 44.8042 32.0376C44.8042 32.0376 44.8818 31.959 45.037 31.8038L45.2708 31.5742C45.426 31.5742 45.5413 31.5333 45.6189 31.4557C45.6965 31.3781 45.8108 31.3414 45.967 31.3414C46.1222 30.878 46.1222 30.5666 45.967 30.4114C45.967 30.2593 45.9261 30.1818 45.8527 30.1818C45.7741 30.1818 45.7332 30.1042 45.7332 29.9479C45.426 29.4855 45.037 29.2517 44.5746 29.2517C44.1069 29.2517 43.8784 29.4855 43.8784 29.9479V30.1818C43.8784 30.1818 43.7997 30.2593 43.6446 30.4114C43.4894 30.4114 43.4107 30.489 43.4107 30.6452V30.878H43.1821L42.9483 31.1076C42.7931 31.1076 42.7145 31.1852 42.7145 31.3414C42.5635 31.4966 42.6369 31.7262 42.9483 32.0376C42.7931 32.0376 42.7145 32.0785 42.7145 32.1519C42.7145 32.2295 42.7931 32.2704 42.9483 32.2704C42.7931 32.2704 42.7145 32.3071 42.7145 32.3858C42.7145 32.4633 42.6369 32.5001 42.4859 32.5001C42.4859 32.8115 42.5635 33.0453 42.7145 33.1963H42.4859C42.1745 33.1963 41.9407 33.4301 41.7897 33.8925ZM24.3779 14.1634C23.7551 14.4707 23.6041 14.9373 23.9113 15.5559C24.0665 15.8631 24.2594 16.0183 24.4922 16.0183C24.726 16.0183 24.919 16.0969 25.0741 16.2521H26.4666C27.2414 16.2521 27.7038 16.0183 27.859 15.5559V15.0893C27.859 14.9373 27.6262 14.7034 27.1628 14.3931C26.8514 14.0858 26.4666 13.9296 26 13.9296C25.6928 13.9296 25.3814 13.9663 25.0741 14.0439C24.7627 14.1226 24.53 14.1634 24.3779 14.1634ZM45.2708 47.1259C45.2708 47.1259 45.1146 47.2035 44.8042 47.3597C44.8042 47.3597 44.7298 47.4373 44.5746 47.5936C43.7997 47.5936 43.3331 48.056 43.1821 48.986L43.4107 49.2146C43.7222 49.526 44.1856 49.6822 44.8042 49.6822C45.578 49.6822 46.1222 49.2932 46.4294 48.5184C46.4294 47.7445 46.0446 47.2821 45.2708 47.1259ZM77.3085 76.1449C76.2222 76.1449 75.6822 76.5339 75.6822 77.3077C75.6822 78.2335 76.1446 78.7012 77.0746 78.7012C77.2298 78.7012 77.3861 78.6225 77.5371 78.4673L77.7709 78.2335C78.3895 77.9263 78.7009 77.3863 78.7009 76.6115C78.7009 76.4563 78.6223 76.3787 78.4671 76.3787C78.1599 76.2225 77.7709 76.1449 77.3085 76.1449ZM78.9295 78.7012C78.7785 78.7012 78.6223 78.7788 78.4671 78.9339V79.6302C78.4671 80.2488 78.8561 80.556 79.6299 80.556C79.6299 80.556 79.7043 80.4784 79.8595 80.3264V80.556C79.5523 81.3298 79.8595 81.7975 80.7896 81.9484H81.252V81.2522C81.252 80.945 81.2928 80.6336 81.3715 80.3264C81.4491 80.015 81.1744 79.8598 80.5558 79.8598C80.4006 79.7046 80.2485 79.7046 80.0933 79.8598C79.9371 79.5526 79.8228 79.3188 79.7453 79.1636C79.6677 79.0084 79.3971 78.8563 78.9295 78.7012ZM18.3405 13.6958C18.3405 14.0072 18.4181 14.241 18.5743 14.3931V14.6259C18.5743 14.9373 18.8816 15.0893 19.5002 15.0893H20.4292C20.8926 14.9373 21.1254 14.6258 21.1254 14.1634C21.1254 13.852 20.8192 13.5448 20.1964 13.2334H19.2706C18.9592 13.2334 18.804 13.311 18.804 13.4672C18.6477 13.4672 18.4967 13.5448 18.3405 13.6958ZM18.5743 87.2896C18.8816 87.1345 19.1521 86.9782 19.3848 86.8272C19.6187 86.671 19.733 86.2044 19.733 85.4337C19.733 85.2786 19.6963 85.201 19.6187 85.201C19.5411 85.201 19.5002 85.1234 19.5002 84.9672H19.0367C18.8815 85.1234 18.7253 85.201 18.5743 85.201C18.2629 85.3562 17.9924 85.5082 17.7596 85.6634C17.5258 85.8196 17.4115 86.282 17.4115 87.0558V87.5235H17.8781C18.1853 87.3672 18.4181 87.2896 18.5743 87.2896ZM79.3971 17.8784C78.7785 17.8784 78.4671 18.3408 78.4671 19.2708C78.4671 20.0446 78.8561 20.5081 79.6299 20.6632C80.0934 20.6632 80.3261 20.5081 80.3261 20.1967C80.3261 18.9594 80.1709 18.2632 79.8595 18.107C79.8595 17.9518 79.7044 17.8784 79.3971 17.8784ZM35.5185 19.7332C35.3633 19.8895 35.2889 20.1967 35.2889 20.6632C35.2889 20.9705 35.5961 21.1257 36.2147 21.1257H36.4485C36.6037 21.1257 36.76 21.0481 36.9109 20.8929C37.2224 20.5857 37.3775 20.1967 37.3775 19.7332C37.3775 19.2708 37.0672 19.037 36.4485 19.037H36.2147C35.7523 19.037 35.5185 19.2708 35.5185 19.7332ZM45.2708 18.5746C45.2708 19.1932 45.3484 19.578 45.5004 19.7332C45.6556 19.7332 45.7332 19.7699 45.7332 19.8485C45.7332 19.9261 45.8108 19.967 45.967 19.967C46.4294 19.967 46.8184 19.6556 47.1257 19.037C47.1257 18.5746 47.0481 18.2632 46.8971 18.107C46.7409 17.9518 46.5857 17.8784 46.4294 17.8784C45.8108 17.8784 45.426 18.107 45.2708 18.5746ZM80.7896 18.5746C80.6333 19.037 80.712 19.4218 81.0223 19.7332C81.0223 19.7332 81.1744 19.8108 81.4858 19.967C82.1044 19.967 82.4158 19.6556 82.4158 19.037C82.7231 18.7256 82.7231 18.4184 82.4158 18.107C82.2596 17.9518 82.1044 17.8784 81.9482 17.8784C81.3296 17.8784 80.9448 18.107 80.7896 18.5746ZM39.6958 48.7522C39.2334 48.7522 38.9996 48.986 38.9996 49.4484C38.9996 50.2222 39.5448 50.6081 40.6259 50.6081C40.9373 50.6081 41.0924 50.3784 41.0924 49.9118C41.0924 49.6046 40.974 49.2932 40.7443 48.986C40.5116 48.6746 40.1634 48.597 39.6958 48.7522ZM81.0223 74.29C80.712 74.4452 80.5558 74.6748 80.5558 74.9863C80.5558 75.7601 81.0223 76.1449 81.9482 76.1449C82.1044 76.1449 82.2596 76.0673 82.4158 75.9152C82.8782 75.9152 82.9558 75.7601 82.6444 75.4486C82.6444 74.6748 82.182 74.29 81.252 74.29H81.0223ZM84.2707 23.9116C83.8083 24.3782 83.8083 24.763 84.2707 25.0744C84.2707 25.0744 84.4269 25.152 84.7341 25.304C85.0445 25.304 85.3559 24.9968 85.6631 24.3782C85.9745 24.0668 86.0521 23.7553 85.8969 23.4481C85.7407 23.293 85.5855 23.2154 85.4345 23.2154C84.8117 23.2154 84.4269 23.4481 84.2707 23.9116ZM31.1074 14.8597C30.8001 15.1669 30.8001 15.4783 31.1074 15.7855C31.2625 15.9407 31.4188 16.0183 31.5739 16.0183C32.0374 16.0183 32.4222 15.7855 32.7336 15.3221C32.8888 14.8597 32.8112 14.4707 32.4998 14.1634C32.4998 14.1634 32.3488 14.0859 32.0374 13.9296C31.726 13.9296 31.4188 14.2411 31.1074 14.8597ZM76.8408 36.215C76.8408 36.6816 77.0747 37.0674 77.5371 37.3778H78.2333C78.5447 37.3778 78.7009 37.3369 78.7009 37.2593C78.7009 37.1817 78.7785 37.145 78.9295 37.145C79.0857 36.8336 78.9295 36.4488 78.4671 35.9853C78.4671 35.8302 78.3895 35.7526 78.2333 35.7526H77.7709C77.1522 35.7526 76.8408 35.9078 76.8408 36.215ZM82.6444 21.8219C82.8006 21.6667 82.7231 21.3595 82.4158 20.8929C82.4158 20.7409 82.2596 20.6632 81.9482 20.6632C81.7972 20.6632 81.4858 20.8929 81.0223 21.3595C80.712 21.9781 80.7896 22.3629 81.252 22.5191C81.252 22.5191 81.4082 22.5967 81.7196 22.7519C82.0268 22.7519 82.3372 22.4405 82.6444 21.8219ZM78.0047 22.5191C77.8485 22.9857 77.926 23.3705 78.2333 23.682H78.7009C79.0081 23.682 79.3185 23.4481 79.6299 22.9857C79.7819 22.6743 79.7044 22.3629 79.3971 22.0557C79.3971 21.9005 79.2409 21.8219 78.9295 21.8219C78.4671 21.8219 78.1599 22.0557 78.0047 22.5191ZM79.6299 69.8778C79.4747 70.0341 79.4747 70.1892 79.6299 70.3413V70.5751C79.6299 71.1927 79.9371 71.5041 80.5558 71.5041C80.8672 71.5041 81.0223 71.4265 81.0223 71.2713C81.0223 71.2713 81.0223 71.1151 81.0223 70.8079C81.0223 70.1892 80.7896 69.8003 80.3261 69.6451H80.0933L79.6299 69.8778ZM41.0924 54.7896C41.0924 54.6333 41.0924 54.4415 41.0924 54.2077C41.0924 53.9749 40.8597 53.7819 40.3962 53.6257C40.2411 53.4747 40.0859 53.4747 39.9296 53.6257C39.7744 53.6257 39.6958 53.7819 39.6958 54.0934V54.323C39.6958 54.7896 40.0072 55.1744 40.6259 55.4858C40.7821 55.4858 40.9373 55.4082 41.0924 55.252V54.7896ZM41.3221 53.6257C41.7897 53.3195 41.9407 53.0857 41.7897 52.9295C41.7897 52.3119 41.4783 52.0047 40.8597 52.0047C40.3962 52.0047 40.1635 52.1557 40.1635 52.4671C40.1635 53.2409 40.5483 53.6257 41.3221 53.6257ZM79.6299 71.7337C79.3185 71.7337 79.1633 71.9675 79.1633 72.4299C79.1633 72.8965 79.5523 73.1262 80.3261 73.1262H80.5558C80.8672 73.1262 81.0223 72.8965 81.0223 72.4299C80.712 71.9675 80.3261 71.7337 79.8595 71.7337H79.6299ZM78.9295 84.2709C78.9295 84.1158 78.9295 84.0004 78.9295 83.9228C78.9295 83.8452 78.7009 83.7299 78.2333 83.5747C78.0823 83.4195 77.9261 83.3409 77.7709 83.3409C77.3085 83.3409 77.0746 83.4971 77.0746 83.8085V84.0371C77.0746 84.3485 77.2298 84.5048 77.5371 84.5048C77.6933 84.6599 77.8485 84.7375 78.0047 84.7375H78.2333C78.7009 84.7375 78.9295 84.5824 78.9295 84.2709ZM73.8221 83.1123C73.6711 83.1123 73.5935 83.3409 73.5935 83.8085C73.4373 83.9637 73.474 84.1158 73.7078 84.2709C73.9417 84.4261 74.2111 84.5048 74.5225 84.5048H74.7522C74.7522 84.5048 74.986 84.2709 75.4484 83.8085C74.986 83.3409 74.597 83.1123 74.2898 83.1123H73.8221ZM21.3592 88.6821C21.0478 88.2197 20.8192 87.9859 20.663 87.9859C20.5078 87.9859 20.274 88.141 19.9668 88.4482C19.9668 88.9159 20.274 89.2231 20.8926 89.3783H21.3592V88.6821ZM54.7893 84.0371C54.7893 84.0371 54.8669 84.0371 55.0189 84.0371H54.7893ZM118.163 79.6302C118.012 79.7822 117.778 79.8598 117.467 79.8598C116.693 79.7046 115.378 79.2779 113.523 78.5816C111.663 77.8854 110.116 76.5339 108.878 74.5228C108.878 74.3676 109.112 74.0562 109.575 73.5928C112.052 72.8189 114.141 71.5041 115.845 69.6451C117.546 67.7892 118.9 65.8526 119.908 63.8415C120.911 61.8304 121.686 59.9745 122.226 58.2707C122.771 56.5668 123.042 55.4858 123.042 55.0192H122.574C119.482 57.3406 116.693 59.8969 114.22 62.6818C111.741 65.4667 109.575 68.2526 107.719 71.0375C105.86 73.8266 104.311 76.493 103.075 79.0493C101.838 81.6003 100.908 83.8085 100.289 85.6634C100.289 85.9748 100.211 86.2453 100.056 86.4791C99.9042 86.7077 99.8266 86.9782 99.8266 87.2896C99.6714 88.0635 99.5928 88.5678 99.5928 88.7964C99.5928 89.0302 99.5928 89.5345 99.5928 90.3083C99.5928 90.6155 99.5152 90.7707 99.36 90.7707C97.8113 91.856 96.226 92.7084 94.6007 93.327C92.9787 93.9457 91.3115 94.1743 89.6119 94.0233C89.3004 94.0233 89.1453 93.7894 89.1453 93.327V92.397C89.4556 86.3596 90.1152 80.5193 91.1186 74.8709C92.1262 69.2194 93.4044 63.378 94.9489 57.3406C95.5706 55.1744 96.1893 53.0857 96.8079 51.0746C97.4265 49.0636 98.1227 46.9749 98.8965 44.8076C98.8965 44.4962 99.0528 44.341 99.36 44.341C99.5152 44.341 99.5928 44.3819 99.5928 44.4553C99.5928 44.534 99.6714 44.5749 99.8266 44.5749C101.682 45.0372 103.734 45.7744 105.978 46.7778C108.223 47.7854 109.652 49.3708 110.271 51.537C110.271 51.6933 110.312 51.8485 110.389 52.0047C110.468 52.1557 110.505 52.3119 110.505 52.4671L110.271 52.7009V53.1633C110.116 53.3195 110.041 53.6257 110.041 54.0934C109.575 54.5558 108.879 56.4116 107.948 59.6631C106.711 62.1418 105.708 64.9267 104.934 68.023C107.564 63.6853 110.078 60.0899 112.478 57.2263C114.875 54.3639 117.082 52.0781 119.093 50.3784C121.104 48.6746 122.771 47.4373 124.086 46.6635C125.401 45.8897 126.289 45.4263 126.757 45.2711C127.219 45.1149 127.682 45.0372 128.149 45.0372L130.238 45.7335C131.475 46.2001 132.868 46.7411 134.415 47.3597C135.964 47.9784 137.279 48.7522 138.364 49.6822C138.516 49.9894 138.671 50.3008 138.826 50.6081C138.983 50.9184 139.138 51.3819 139.29 52.0047C139.29 52.3119 139.253 52.5447 139.175 52.7009C139.097 52.8519 139.06 53.0857 139.06 53.3971C138.749 55.7154 138.167 57.9226 137.32 60.0112C136.467 62.1009 135.423 63.9967 134.183 65.7005C132.79 67.7116 131.282 69.4888 129.656 71.0375C128.031 72.5862 126.482 73.9409 125.012 75.1006C123.541 76.2634 122.189 77.2301 120.953 78.0039C119.712 78.7788 118.859 79.3188 118.397 79.6302H118.163ZM97.9675 55.0192C97.9675 55.641 97.9675 55.9482 97.9675 55.9482C98.2789 56.2596 98.5851 56.4117 98.8965 56.4117C99.36 56.4117 99.5928 56.182 99.5928 55.7154V55.4858C99.749 55.0192 99.749 54.712 99.5928 54.5557C100.056 54.5557 100.289 54.171 100.289 53.3971V53.1633C100.289 53.1633 100.368 53.0857 100.523 52.9295C100.523 52.7743 100.6 52.6223 100.752 52.4671V52.2333C100.908 52.2333 100.986 52.1557 100.986 52.0047V51.537C101.141 51.537 101.219 51.3819 101.219 51.0746C101.375 50.7632 101.449 50.5336 101.449 50.3784C101.449 50.2222 101.526 50.067 101.682 49.9118V49.6822C102.145 49.2146 102.379 48.8298 102.379 48.5184C102.534 47.9008 102.3 47.4373 101.682 47.1259C101.219 46.8187 100.752 46.8973 100.289 47.3597C99.8266 47.8221 99.5928 48.2111 99.5928 48.5184V48.986C99.5928 48.986 99.6714 49.1412 99.8266 49.4484C99.6714 49.4484 99.5928 49.526 99.5928 49.6822C99.5928 49.6822 99.5152 49.8374 99.36 50.1446L99.1304 50.3784C99.1304 50.5336 99.0528 50.6856 98.8965 50.8408V51.7709C98.279 52.3895 98.2003 52.9295 98.6638 53.3971V53.6257C98.3566 53.9371 98.4341 54.2443 98.8965 54.5557H98.6638L98.4342 54.7896C98.279 54.7896 98.2003 54.8263 98.2003 54.9039C98.2003 54.9815 98.1227 55.0192 97.9675 55.0192ZM133.486 60.1266C133.179 60.438 133.023 60.7483 133.023 61.0555L133.719 61.7518H133.953C134.104 61.7518 134.338 61.5966 134.649 61.2894L134.879 61.0555V60.3593L135.808 59.4303V58.9669L136.042 58.7341V58.2707C136.198 58.2707 136.271 58.1931 136.271 58.0379V57.8083C136.426 57.652 136.505 57.4969 136.505 57.3406L136.972 56.6444V55.0192C137.434 54.8672 137.668 54.4006 137.668 53.6257C137.668 53.0081 137.512 52.7009 137.201 52.7009C137.201 52.5447 137.123 52.4671 136.972 52.4671C136.66 52.3119 136.198 52.3895 135.575 52.7009C135.268 53.0081 135.112 53.5481 135.112 54.323V54.5557C135.423 54.5557 135.423 54.712 135.112 55.0192V55.252C135.112 55.4082 135.034 55.5634 134.879 55.7154V56.182C134.727 56.3372 134.649 56.4892 134.649 56.6444C134.649 56.9558 134.572 57.1855 134.415 57.3406L133.953 58.2707V58.5045C133.953 58.8117 134.031 59.0445 134.183 59.2007L133.953 59.4303C133.953 59.4303 133.875 59.5855 133.719 59.8969L133.486 60.1266ZM96.5751 58.7341C96.5751 59.2007 96.8079 59.5079 97.2713 59.6631C97.2713 59.6631 97.3489 59.7418 97.5041 59.8969H97.9675C98.1227 59.8969 98.2003 59.8193 98.2003 59.6631C98.3565 59.6631 98.5851 59.5079 98.8965 59.2007C98.8965 58.8893 98.8965 58.5779 98.8965 58.2707C98.8965 57.9593 98.8189 57.7307 98.6638 57.5745C98.5075 57.4193 98.1227 57.3406 97.5041 57.3406C97.0417 57.3406 96.8079 57.7307 96.8079 58.5045L96.5751 58.7341ZM97.2713 74.29C97.7379 73.9786 97.5041 73.36 96.5751 72.4299H96.1116C95.9565 72.4299 95.8778 72.4708 95.8778 72.5484C95.8778 72.6271 95.8002 72.6638 95.6451 72.6638V73.1262C95.493 73.4376 95.3379 73.749 95.1816 74.0562C95.0264 74.3676 95.2603 74.6748 95.8778 74.9863L96.1116 75.219C96.8855 74.9076 97.2713 74.5962 97.2713 74.29ZM125.827 64.3081C125.515 64.6153 125.364 64.9267 125.364 65.2339C125.672 65.5453 125.904 65.7005 126.061 65.7005C126.523 65.7005 126.908 65.4667 127.219 65.0043C127.531 64.6929 127.604 64.3815 127.453 64.0743C127.453 63.7628 127.219 63.6119 126.757 63.6119C126.289 63.6119 125.982 63.8415 125.827 64.3081ZM97.9675 64.5377C97.9675 64.6929 98.1227 64.7705 98.4342 64.7705C99.0528 64.7705 99.5152 64.6153 99.8266 64.3081V63.378C99.5152 63.0666 99.2824 62.9156 99.1304 62.9156C98.5075 62.9156 98.1227 63.1453 97.9675 63.6119V64.5377ZM98.8965 73.1262C99.5152 73.1262 99.6714 72.9752 99.36 72.6638C99.36 71.8889 99.1304 71.5041 98.6638 71.5041C98.2003 71.5041 97.8889 71.7337 97.7379 72.2003C97.7379 72.8189 98.1227 73.1262 98.8965 73.1262ZM130.004 63.1453C129.849 63.4556 129.771 63.8415 129.771 64.3081C129.927 64.4601 130.083 64.5377 130.238 64.5377C130.7 64.5377 130.934 64.3815 130.934 64.0743C131.089 63.9191 131.168 63.6119 131.168 63.1453L130.7 62.6818C130.238 62.6818 130.004 62.8381 130.004 63.1453ZM100.056 71.2713C100.368 71.2713 100.523 71.1151 100.523 70.8079C100.523 70.0341 100.134 69.6451 99.36 69.6451C99.0528 69.6451 98.8965 69.8778 98.8965 70.3413C98.8965 70.9599 99.2824 71.2713 100.056 71.2713Z" fill="white"/>
<path fill-rule="evenodd" clip-rule="evenodd" d="M184.794 60.3593C183.865 60.5156 182.55 60.5156 180.846 60.3593C179.142 60.2041 177.052 60.2817 174.579 60.5931C175.816 62.449 176.128 65.0043 175.505 68.2526C175.353 68.4078 175.275 68.7192 175.275 69.1816C174.038 74.4452 171.868 78.8154 168.775 82.2965C165.679 85.7818 162.197 88.141 158.327 89.3783C157.09 89.6897 155.849 89.9602 154.612 90.1898C153.375 90.4226 152.06 90.4635 150.667 90.3083C148.035 90.1521 145.987 89.5712 144.516 88.5678C143.046 87.5601 141.924 86.3596 141.149 84.9671C140.375 83.5747 139.871 82.1823 139.638 80.7898C139.408 79.3974 139.29 78.3111 139.29 77.5373V77.3077C139.29 71.1151 140.568 65.7781 143.123 61.2893C145.675 56.8006 148.035 53.3971 150.201 51.0746C151.131 50.1446 152.138 49.2145 153.22 48.2897C154.305 47.3597 155.464 46.5073 156.701 45.7335H156.934C157.397 45.4262 158.368 45.0005 159.838 44.4553C161.309 43.9153 162.972 43.5672 164.827 43.411C166.687 43.411 168.309 43.7224 169.701 44.341C170.168 44.6524 170.594 44.9597 170.978 45.2711C171.368 45.5783 171.794 45.8897 172.257 46.2C173.494 47.4373 174.231 48.7522 174.461 50.1446C174.693 51.537 174.657 52.8519 174.345 54.0933C176.049 53.7819 178.06 53.4747 180.383 53.1633C182.705 52.8519 185.335 52.5447 188.276 52.2333C188.276 52.2333 188.353 52.3119 188.509 52.4671C188.509 53.0857 188.313 54.3639 187.928 56.2963C187.538 58.234 186.572 59.5855 185.023 60.3593H184.794ZM169.005 70.8079C169.779 68.174 169.934 66.2415 169.472 65.0043C169.005 63.7628 168.386 62.989 167.613 62.6818C166.687 62.2152 165.523 62.1418 164.13 62.449C164.13 62.6042 164.094 62.6818 164.016 62.6818C163.939 62.6818 163.898 62.6042 163.898 62.449C163.59 62.2928 163.2 61.8713 162.738 61.1709C162.276 60.4747 161.964 59.6631 161.808 58.7341C161.657 58.4269 161.579 58.1155 161.579 57.8083C161.579 57.4968 161.73 57.3406 162.042 57.3406C162.197 57.3406 162.583 57.1854 163.2 56.8782C165.523 54.5557 167.305 51.6933 168.542 48.2897C166.531 49.0636 164.556 50.456 162.624 52.4671C160.686 54.4781 158.868 57.112 157.168 60.3593C156.393 61.7518 155.579 63.5342 154.73 65.7005C153.879 67.8678 153.22 70.1892 152.757 72.6638C152.757 73.4376 152.678 73.9786 152.523 74.29V77.3077C152.678 78.2335 152.871 79.1636 153.105 80.0936C153.338 81.0226 153.838 81.8709 154.612 82.6447L155.542 83.3409C155.697 83.4971 155.849 83.5747 156.004 83.5747C156.161 83.5747 156.393 83.6523 156.701 83.8085H157.397C158.015 83.8085 158.789 83.689 159.719 83.4604C160.649 83.2266 161.657 82.6447 162.738 81.7188C163.823 80.7898 164.904 79.475 165.991 77.7711C167.072 76.0673 168.079 73.749 169.005 70.8079ZM155.775 50.1446C156.238 50.1446 156.623 49.9894 156.934 49.6822C157.246 49.3708 157.397 48.986 157.397 48.5183C157.246 48.5183 157.168 48.4407 157.168 48.2897C156.857 47.8221 156.55 47.5935 156.238 47.5935C155.62 47.5935 155.153 47.7445 154.846 48.0559C154.846 48.2111 154.805 48.2897 154.73 48.2897C154.653 48.2897 154.612 48.3674 154.612 48.5183V48.7522L153.682 49.4484C153.531 49.4484 153.453 49.4893 153.453 49.5627C153.453 49.6413 153.375 49.6822 153.22 49.6822L152.757 50.3784C152.601 50.3784 152.367 50.5336 152.06 50.8408C151.905 50.997 151.827 51.3085 151.827 51.7709C151.364 52.2333 151.286 52.5447 151.593 52.7009H151.364C151.364 52.7009 151.208 52.7743 150.897 52.9295C150.59 53.2409 150.435 53.4747 150.435 53.6257C150.435 53.9371 150.667 54.1709 151.131 54.323H151.364C151.516 54.323 151.749 54.1709 152.06 53.8595C152.06 53.7043 152.098 53.589 152.175 53.5114C152.253 53.4338 152.289 53.3195 152.289 53.1633C152.601 53.1633 152.912 52.9295 153.22 52.4671C153.375 52.4671 153.453 52.3895 153.453 52.2333V52.0047H153.682C153.838 51.8485 153.993 51.7709 154.15 51.7709L154.612 51.3085C154.612 51.3085 154.69 51.2298 154.846 51.0746L155.775 50.1446ZM182.238 53.6257C181.931 53.7819 181.734 53.9749 181.657 54.2076C181.583 54.4415 181.386 54.712 181.079 55.0192C181.235 55.641 181.62 55.9482 182.238 55.9482H182.705C182.705 55.9482 182.857 55.8706 183.167 55.7154C183.324 55.7154 183.516 55.6787 183.749 55.6001C183.979 55.5225 184.171 55.4858 184.327 55.4858H184.561C185.023 55.4858 185.335 55.4082 185.49 55.252H186.416L186.65 55.0192C186.961 54.712 187.039 54.323 186.882 53.8595V53.6257C186.882 53.3195 186.727 53.1633 186.416 53.1633C186.265 53.1633 186.031 53.2409 185.72 53.3971H185.49C185.49 53.3971 185.412 53.3195 185.257 53.1633C185.101 53.1633 185.023 53.2 185.023 53.2776C185.023 53.3562 184.946 53.3971 184.794 53.3971H183.865C183.553 53.3971 183.246 53.5481 182.935 53.8595C182.935 53.8595 182.778 53.7819 182.471 53.6257H182.238ZM149.738 56.8782C150.046 56.8782 150.278 56.723 150.435 56.4116C150.897 55.9482 150.975 55.5634 150.667 55.252L149.971 54.5557H149.738C149.275 54.5557 148.886 54.8672 148.579 55.4858C148.579 55.793 148.538 56.0268 148.46 56.182C148.383 56.3372 148.501 56.4892 148.808 56.6444C148.808 56.8006 148.964 56.8782 149.275 56.8782H149.738ZM149.971 70.1116C149.971 69.6451 149.971 69.4154 149.971 69.4154C149.971 68.9488 149.66 68.7192 149.042 68.7192C148.731 68.7192 148.424 68.8712 148.112 69.1816C148.112 69.4888 148.035 69.7226 147.878 69.8778C148.346 70.3413 148.731 70.5751 149.042 70.5751C149.349 70.5751 149.66 70.4189 149.971 70.1116ZM179.916 55.7154C179.916 55.5634 179.957 55.4082 180.034 55.252C180.112 55.0968 180.071 54.8671 179.916 54.5557C179.916 54.4005 179.764 54.323 179.453 54.323H179.22C179.22 54.323 179.068 54.4781 178.756 54.7895C178.294 55.2519 178.294 55.641 178.756 55.9482C178.601 56.1044 178.679 56.182 178.99 56.182C179.297 56.182 179.609 56.0268 179.916 55.7154ZM224.953 60.3593C224.027 60.5156 222.708 60.5156 221.009 60.3593C219.305 60.2041 217.216 60.2817 214.739 60.5931C215.979 62.449 216.286 65.0043 215.669 68.2526C215.512 68.4078 215.435 68.7192 215.435 69.1816C214.198 74.4452 212.031 78.8154 208.935 82.2965C205.842 85.7818 202.357 88.141 198.491 89.3783C197.249 89.6897 196.012 89.9602 194.776 90.1898C193.538 90.4226 192.219 90.4635 190.827 90.3083C188.197 90.1521 186.145 89.5712 184.675 88.5678C183.205 87.5601 182.082 86.3596 181.308 84.9671C180.535 83.5747 180.034 82.1823 179.802 80.7898C179.568 79.3974 179.453 78.3111 179.453 77.5373V77.3077C179.453 71.1151 180.731 65.7781 183.283 61.2893C185.838 56.8006 188.197 53.3971 190.365 51.0746C191.294 50.1446 192.297 49.2145 193.383 48.2897C194.464 47.3597 195.627 46.5073 196.864 45.7335H197.098C197.561 45.4262 198.527 45.0005 199.997 44.4553C201.468 43.9153 203.131 43.5672 204.99 43.411C206.845 43.411 208.471 43.7224 209.864 44.341C210.332 44.6524 210.753 44.9597 211.142 45.2711C211.527 45.5783 211.954 45.8897 212.42 46.2C213.658 47.4373 214.39 48.7522 214.623 50.1446C214.857 51.537 214.816 52.8519 214.509 54.0933C216.209 53.7819 218.224 53.4747 220.542 53.1633C222.865 52.8519 225.499 52.5447 228.439 52.2333C228.439 52.2333 228.513 52.3119 228.668 52.4671C228.668 53.0857 228.475 54.3639 228.09 56.2963C227.701 58.234 226.735 59.5855 225.187 60.3593H224.953ZM209.168 70.8079C209.943 68.174 210.098 66.2415 209.631 65.0043C209.168 63.7628 208.549 62.989 207.775 62.6818C206.845 62.2152 205.687 62.1418 204.294 62.449C204.294 62.6042 204.253 62.6818 204.176 62.6818C204.101 62.6818 204.06 62.6042 204.06 62.449C203.753 62.2928 203.364 61.8713 202.902 61.1709C202.434 60.4747 202.127 59.6631 201.972 58.7341C201.816 58.4269 201.738 58.1155 201.738 57.8083C201.738 57.4968 201.894 57.3406 202.205 57.3406C202.356 57.3406 202.746 57.1854 203.364 56.8782C205.687 54.5557 207.464 51.6933 208.705 48.2897C206.694 49.0636 204.72 50.456 202.782 52.4671C200.85 54.4781 199.031 57.112 197.327 60.3593C196.553 61.7518 195.742 63.5342 194.89 65.7005C194.039 67.8678 193.383 70.1892 192.916 72.6638C192.916 73.4376 192.842 73.9786 192.687 74.29V77.3077C192.842 78.2335 193.035 79.1636 193.264 80.0936C193.498 81.0226 194.001 81.8709 194.776 82.6447L195.705 83.3409C195.857 83.4971 196.012 83.5747 196.168 83.5747C196.323 83.5747 196.553 83.6523 196.864 83.8085H197.561C198.179 83.8085 198.953 83.689 199.883 83.4604C200.813 83.2266 201.817 82.6447 202.902 81.7188C203.983 80.7898 205.068 79.475 206.149 77.7711C207.235 76.0673 208.239 73.749 209.168 70.8079ZM195.934 50.1446C196.402 50.1446 196.787 49.9894 197.098 49.6822C197.405 49.3708 197.561 48.986 197.561 48.5183C197.405 48.5183 197.327 48.4407 197.327 48.2897C197.02 47.8221 196.709 47.5935 196.402 47.5935C195.779 47.5935 195.316 47.7445 195.008 48.0559C195.008 48.2111 194.968 48.2897 194.89 48.2897C194.812 48.2897 194.776 48.3674 194.776 48.5183V48.7522L193.846 49.4484C193.69 49.4484 193.612 49.4893 193.612 49.5627C193.612 49.6413 193.538 49.6822 193.383 49.6822L192.916 50.3784C192.765 50.3784 192.531 50.5336 192.219 50.8408C192.068 50.997 191.991 51.3085 191.991 51.7709C191.523 52.2333 191.446 52.5447 191.757 52.7009H191.523C191.523 52.7009 191.372 52.7743 191.061 52.9295C190.749 53.2409 190.597 53.4747 190.597 53.6257C190.597 53.9371 190.827 54.1709 191.294 54.323H191.523C191.679 54.323 191.912 54.1709 192.219 53.8595C192.219 53.7043 192.26 53.589 192.339 53.5114C192.417 53.4338 192.453 53.3195 192.453 53.1633C192.765 53.1633 193.072 52.9295 193.383 52.4671C193.538 52.4671 193.612 52.3895 193.612 52.2333V52.0047H193.846C194.001 51.8485 194.157 51.7709 194.312 51.7709L194.776 51.3085C194.776 51.3085 194.853 51.2298 195.008 51.0746L195.934 50.1446ZM222.401 53.6257C222.091 53.7819 221.898 53.9749 221.82 54.2076C221.743 54.4415 221.55 54.712 221.238 55.0192C221.393 55.641 221.784 55.9482 222.401 55.9482H222.865C222.865 55.9482 223.02 55.8706 223.331 55.7154C223.483 55.7154 223.679 55.6787 223.909 55.6001C224.143 55.5225 224.335 55.4858 224.491 55.4858H224.724C225.187 55.4858 225.498 55.4082 225.649 55.252H226.579L226.812 55.0192C227.119 54.712 227.198 54.323 227.042 53.8595V53.6257C227.042 53.3195 226.891 53.1633 226.579 53.1633C226.423 53.1633 226.195 53.2409 225.883 53.3971H225.649C225.649 53.3971 225.572 53.3195 225.42 53.1633C225.265 53.1633 225.187 53.2 225.187 53.2776C225.187 53.3562 225.108 53.3971 224.953 53.3971H224.027C223.716 53.3971 223.405 53.5481 223.097 53.8595C223.097 53.8595 222.942 53.7819 222.635 53.6257H222.401ZM189.901 56.8782C190.208 56.8782 190.442 56.723 190.597 56.4116C191.061 55.9482 191.138 55.5634 190.827 55.252L190.131 54.5557H189.901C189.434 54.5557 189.05 54.8672 188.738 55.4858C188.738 55.793 188.702 56.0268 188.624 56.182C188.545 56.3372 188.661 56.4892 188.972 56.6444C188.972 56.8006 189.127 56.8782 189.434 56.8782H189.901ZM190.131 70.1116C190.131 69.6451 190.131 69.4154 190.131 69.4154C190.131 68.9488 189.824 68.7192 189.205 68.7192C188.893 68.7192 188.583 68.8712 188.276 69.1816C188.276 69.4888 188.197 69.7226 188.042 69.8778C188.504 70.3413 188.893 70.5751 189.205 70.5751C189.512 70.5751 189.823 70.4189 190.131 70.1116ZM220.08 55.7154C220.08 55.5634 220.121 55.4082 220.194 55.252C220.272 55.0968 220.235 54.8671 220.08 54.5557C220.08 54.4005 219.923 54.323 219.616 54.323H219.383C219.383 54.323 219.227 54.4781 218.92 54.7895C218.453 55.2519 218.453 55.641 218.92 55.9482C218.765 56.1044 218.842 56.182 219.15 56.182C219.461 56.182 219.768 56.0268 220.08 55.7154ZM244.224 61.0555H243.528C243.216 61.0555 242.946 61.0964 242.713 61.1709C242.484 61.2485 242.135 61.367 241.668 61.519C242.598 63.8415 243.565 65.8934 244.572 67.6749C245.576 69.4521 246.469 71.0375 247.243 72.4299C248.635 74.7524 249.716 76.6492 250.49 78.1192C251.265 79.5892 251.884 80.6745 252.35 81.3707C252.813 82.0669 253.198 82.5304 253.509 82.7642C253.82 82.9928 254.284 83.1123 254.902 83.1123C255.213 83.1123 255.442 83.0714 255.598 82.9928C255.754 82.9152 255.909 82.8785 256.061 82.8785C256.991 82.4161 257.999 81.4451 259.08 79.9782C260.165 78.5082 261.209 76.9596 262.217 75.3344C263.22 73.7081 264.109 72.1594 264.883 70.6894C265.657 69.2194 266.202 68.2526 266.509 67.7892C266.665 67.7892 266.78 67.7483 266.858 67.6749C266.935 67.5973 267.128 67.5564 267.439 67.5564H271.383C271.851 67.5564 271.928 67.7116 271.617 68.023C271.154 68.7926 270.495 70.1116 269.642 71.9675C268.791 73.8266 267.747 75.8743 266.509 78.1192C265.272 80.3631 263.839 82.4528 262.217 84.3852C260.591 86.3229 258.85 87.6744 256.991 88.4482C256.061 88.7596 255.365 88.9159 254.902 88.9159H254.439C251.343 89.2231 248.713 88.6045 246.547 87.0558C244.379 85.5082 242.598 83.689 241.205 81.6003C239.813 79.5117 238.691 77.3454 237.839 75.1005C236.987 72.8556 236.253 71.1927 235.636 70.1116C234.242 72.7413 233.079 75.219 232.149 77.5373C231.223 79.8598 230.45 81.8708 229.831 83.5747C229.676 84.6599 229.562 85.7043 229.483 86.7077C229.405 87.7153 229.364 88.6045 229.364 89.3783V89.6121C229.364 89.7673 229.287 89.8417 229.135 89.8417C228.513 90.1521 227.239 90.6931 225.301 91.4669C223.368 92.2418 221.316 92.4746 219.15 92.1632C218.842 92.008 218.686 91.7783 218.686 91.4669C218.842 90.0745 219.191 86.5934 219.732 81.0226C220.272 75.4486 221.045 68.8335 222.053 61.1709C223.056 53.5114 224.335 45.3078 225.883 36.5631C227.431 27.8184 229.209 19.578 231.223 11.841C231.223 11.3786 231.375 11.2999 231.687 11.6071C232.306 11.7634 233.234 11.9961 234.472 12.3034C235.713 12.6148 236.987 13.1191 238.301 13.8153C239.62 14.5116 240.816 15.3221 241.902 16.2521C242.987 17.1822 243.683 18.3408 243.99 19.7332V19.967C243.835 20.2742 243.757 20.4294 243.757 20.4294C243.605 21.2043 243.102 23.1367 242.25 26.233C241.398 29.3303 240.432 33.082 239.346 37.4931C238.264 41.9042 237.106 46.6635 235.864 51.7709C234.628 56.8782 233.542 61.908 232.617 66.8602C235.713 61.2894 239.117 55.8706 242.832 50.608C246.547 45.3486 250.412 40.7037 254.439 36.6815L254.902 36.4488C255.213 36.7602 255.79 37.2226 256.643 37.8412C257.494 38.4598 258.347 39.1561 259.198 39.9299C260.046 40.7037 260.747 41.5561 261.287 42.4851C261.828 43.411 261.942 44.341 261.635 45.2711C261.791 45.4263 261.791 45.5038 261.635 45.5038C261.324 45.8111 260.242 46.8187 258.383 48.5183C256.527 50.2222 254.516 52.0047 252.35 53.8595C249.872 56.0268 247.165 58.4269 244.224 61.0555ZM231.453 21.8219V22.2853C231.453 22.5967 231.453 22.7519 231.453 22.7519L232.149 23.2153H232.383C232.845 23.2153 233.079 22.9857 233.079 22.5191V22.2853C233.542 22.2853 233.542 22.0557 233.079 21.5891C233.391 21.5891 233.542 21.2819 233.542 20.6632C233.698 20.508 233.776 20.4294 233.776 20.4294V20.1966C233.776 20.0446 233.853 19.967 234.009 19.967V19.7332C234.165 19.7332 234.242 19.6556 234.242 19.5004V19.2708C234.394 19.1146 234.472 18.8818 234.472 18.5746C234.628 18.4184 234.706 18.2632 234.706 18.1069V17.6445H234.938L235.636 16.7145C235.787 16.4073 235.75 16.0969 235.516 15.7855C235.286 15.4783 235.09 15.3221 234.938 15.3221C234.165 14.8597 233.62 14.9372 233.313 15.5559C233.002 15.8631 232.845 16.0969 232.845 16.2521V17.1821C232.845 17.3331 232.809 17.4107 232.731 17.4107C232.654 17.4107 232.617 17.4893 232.617 17.6445C232.461 17.9517 232.383 18.1856 232.383 18.3408C232.228 18.648 232.149 18.8042 232.149 18.8042L231.687 19.5004C231.687 19.967 231.764 20.2742 231.921 20.4294V20.8929C231.921 21.2043 231.998 21.3595 232.149 21.3595C231.998 21.3595 231.764 21.5146 231.453 21.8219ZM252.116 41.7889C251.961 41.9409 251.884 42.0961 251.884 42.2524L252.58 42.9486C252.58 42.9486 252.813 42.9486 253.276 42.9486C253.431 42.9486 253.509 42.871 253.509 42.7148C253.509 42.4075 253.431 42.1748 253.276 42.0185C253.431 42.1748 253.665 42.2524 253.972 42.2524L254.439 42.0185C254.595 42.0185 254.746 41.8675 254.902 41.5561C255.057 41.3999 255.213 41.3223 255.365 41.3223L255.831 41.0927L256.061 40.8599C256.527 40.8599 256.761 40.7813 256.761 40.6261C256.912 40.4709 256.835 40.0851 256.527 39.4675C256.216 39.1561 255.831 38.9998 255.365 38.9998C255.057 38.9998 254.902 39.0774 254.902 39.2337L254.668 39.7002V39.9299L254.439 40.1637H254.205C254.05 40.3189 253.895 40.3189 253.743 40.1637V40.3965L253.509 40.6261C253.198 40.6261 253.046 40.6261 253.046 40.6261V41.3223C252.735 41.6337 252.657 41.7889 252.813 41.7889H252.116ZM232.845 45.0372C232.845 44.4186 232.538 43.8 231.921 43.1824C231.609 43.1824 231.453 43.1824 231.453 43.1824C231.146 43.1824 230.991 43.26 230.991 43.411V43.8786C230.834 44.1858 230.72 44.4962 230.643 44.8076C230.565 45.1148 230.834 45.4262 231.453 45.7335H231.687C232.149 45.7335 232.538 45.5038 232.845 45.0372ZM230.527 25.0744C230.217 25.693 230.45 26.0002 231.223 26.0002H231.921C231.921 25.8482 231.998 25.7706 232.149 25.7706C232.149 25.7706 232.305 25.6154 232.617 25.304C232.617 24.6854 232.538 24.3006 232.383 24.1443C232.072 23.8329 231.687 23.6819 231.223 23.6819C230.913 23.6819 230.679 23.9116 230.527 24.3782V25.0744ZM226.812 77.5373C226.812 76.9187 226.735 76.5339 226.579 76.3787C226.423 76.3787 226.346 76.342 226.346 76.2633C226.346 76.1857 226.268 76.1449 226.116 76.1449C225.649 76.1449 225.265 76.4563 224.953 77.0749C224.953 77.5373 225.031 77.8487 225.187 78.0039C225.342 78.1601 225.498 78.2335 225.649 78.2335C225.961 78.2335 226.346 78.0039 226.812 77.5373ZM251.187 83.8085C251.187 83.1899 251.109 82.8009 250.958 82.6447C250.801 82.6447 250.724 82.608 250.724 82.5304C250.724 82.4528 250.646 82.4161 250.49 82.4161C250.028 82.4161 249.639 82.7222 249.331 83.3409C249.331 83.8085 249.409 84.1157 249.561 84.2709C249.716 84.4261 249.872 84.5047 250.028 84.5047C250.335 84.5047 250.724 84.2709 251.187 83.8085ZM232.383 35.2891C232.383 35.4411 232.617 35.5187 233.079 35.5187C233.391 35.5187 233.698 35.3635 234.009 35.0563C234.165 34.7449 234.242 34.4377 234.242 34.1263C233.932 33.8191 233.698 33.6628 233.542 33.6628C232.924 33.6628 232.538 33.8925 232.383 34.3591C232.228 34.5153 232.228 34.8225 232.383 35.2891ZM250.49 42.9486C250.335 43.411 250.49 43.8 250.958 44.1072C251.109 44.2634 251.265 44.341 251.42 44.341H251.654L251.884 44.5748C252.194 44.2634 252.35 44.0338 252.35 43.8786V43.6448C252.039 43.1824 251.805 42.9486 251.654 42.9486C251.342 42.7923 251.109 42.7148 250.958 42.7148C250.801 42.871 250.646 42.9486 250.49 42.9486ZM246.313 55.4858C246.776 55.1744 246.854 54.6333 246.547 53.8595C246.39 53.7043 246.235 53.6257 246.079 53.6257C245.924 53.7819 245.85 53.8595 245.85 53.8595L245.617 54.0933C245.461 54.0933 245.305 54.1709 245.154 54.323C244.998 54.4781 245.075 54.712 245.383 55.0192C245.383 55.3296 245.383 55.4858 245.383 55.4858C245.383 55.4858 245.617 55.4858 246.079 55.4858H246.313ZM228.206 76.3787C228.513 76.3787 228.668 76.1448 228.668 75.6824C228.668 75.0638 228.283 74.7524 227.51 74.7524C227.198 74.7524 227.042 74.9862 227.042 75.4486C227.042 76.0673 227.431 76.3787 228.206 76.3787ZM234.242 43.8786C234.549 43.8786 234.706 43.6448 234.706 43.1824C234.706 42.5638 234.394 42.2524 233.776 42.2524H233.542C233.235 42.2524 233.079 42.4075 233.079 42.7148C233.079 43.4896 233.468 43.8786 234.242 43.8786ZM235.168 42.0185C235.479 42.0185 235.636 41.7889 235.636 41.3223C235.636 40.7037 235.246 40.3965 234.472 40.3965C234.165 40.3965 234.009 40.5485 234.009 40.8599C234.009 41.6337 234.317 42.0185 234.938 42.0185H235.168ZM249.331 49.6822V49.9118C249.331 50.067 249.409 50.1446 249.561 50.1446C249.716 50.3008 250.028 50.3784 250.49 50.3784C251.109 50.3784 251.187 50.1446 250.724 49.6822C250.88 49.6822 250.917 49.6413 250.839 49.5627C250.761 49.4893 250.646 49.4484 250.49 49.4484C250.335 49.4484 250.221 49.4117 250.142 49.3341C250.064 49.2565 249.872 49.2146 249.561 49.2146C249.561 49.3708 249.524 49.4484 249.446 49.4484C249.368 49.4484 249.331 49.526 249.331 49.6822ZM249.561 54.323C249.872 54.1709 249.95 54.0158 249.794 53.8595C249.639 53.7043 249.409 53.6257 249.098 53.6257C248.79 53.4747 248.635 53.3971 248.635 53.3971C248.48 53.7043 248.713 54.1709 249.331 54.7895C249.487 54.4781 249.561 54.323 249.561 54.323ZM248.169 55.252C248.48 55.252 248.635 55.252 248.635 55.252C248.942 54.9447 248.79 54.6333 248.169 54.323C248.169 53.7043 248.017 53.7043 247.705 54.323C247.55 54.6333 247.513 54.8672 247.591 55.0192C247.664 55.1744 247.783 55.1744 247.939 55.0192L248.169 55.252ZM273.939 96.1119C273.476 96.2671 273.009 96.3415 272.547 96.3415H271.851C270.764 96.3415 269.84 96.1895 269.065 95.8781C268.291 95.5709 267.517 95.2605 266.742 94.9491C265.195 93.7118 264.305 92.1265 264.073 90.1898C263.839 88.2564 263.725 86.9048 263.725 86.13C264.035 82.4161 264.576 77.5006 265.35 71.3856C266.125 65.2748 267.049 58.5045 268.136 51.0746C269.065 44.5748 270.261 38.1893 271.731 31.9223C273.202 25.6521 274.791 19.5004 276.49 13.4672C276.49 13.4672 276.647 13.3886 276.958 13.2334C277.42 13.3886 278.31 13.6182 279.629 13.9296C280.942 14.241 282.257 14.7412 283.572 15.4374C284.887 16.1336 286.087 16.985 287.173 17.9926C288.254 19.0003 288.872 20.1966 289.027 21.5891V22.2853C288.872 22.9081 288.488 24.223 287.869 26.233C287.25 28.2441 286.476 30.7595 285.546 33.7782C284.616 36.7969 283.65 40.1637 282.643 43.8786C281.64 47.5935 280.673 51.4594 279.743 55.4858C278.506 60.5931 277.384 65.6229 276.376 70.5751C275.368 75.5262 274.713 79.9374 274.402 83.8085C274.246 84.5823 274.131 85.2377 274.054 85.7818C273.976 86.3229 273.939 86.9048 273.939 87.5234V89.1445C274.402 90.5421 275.487 90.3083 277.187 88.4482C278.89 86.5934 280.673 84.2709 282.528 81.486C284.384 78.7012 286.128 75.9519 287.75 73.2446C289.376 70.5373 290.421 68.8712 290.888 68.2526C291.039 68.0964 291.35 68.023 291.813 68.023H295.761C296.068 68.023 296.146 68.174 295.995 68.4854C295.684 69.104 294.987 70.4188 293.902 72.4299C292.821 74.4452 291.543 76.7268 290.072 79.2778C288.602 81.8341 287.016 84.3118 285.313 86.7077C283.613 89.1078 281.988 91.0045 280.439 92.397V92.6308C277.654 94.7971 275.487 95.9567 273.939 96.1119ZM275.566 23.4481C275.566 24.0667 275.566 24.3782 275.566 24.3782C275.873 24.6854 276.105 24.8406 276.262 24.8406H276.49C276.802 24.8406 276.958 24.763 276.958 24.6078C276.958 24.4516 277.036 24.3006 277.187 24.1443C277.187 23.6819 277.109 23.3705 276.958 23.2153C277.109 23.2153 277.343 22.9857 277.654 22.5191C277.809 22.3629 277.883 22.2119 277.883 22.0557V21.5891C278.039 21.5891 278.117 21.5146 278.117 21.3595L278.35 21.1256V20.8929C278.35 20.8929 278.428 20.7408 278.58 20.4294C278.735 20.118 278.813 19.8108 278.813 19.5004V19.2708C279.28 18.8042 279.509 18.497 279.509 18.3408C279.665 17.7221 279.431 17.2555 278.813 16.9483C278.194 16.6369 277.654 16.7145 277.187 17.1821C277.036 17.3331 276.958 17.6445 276.958 18.1069V18.8042H276.724V19.2708L276.49 19.5004C276.49 19.6556 276.413 19.8108 276.262 19.967V20.6632C275.95 20.6632 275.794 20.8153 275.794 21.1256C275.794 21.5891 275.873 21.9005 276.028 22.0557V22.2853C276.028 22.7519 276.028 22.9857 276.028 22.9857L275.566 23.4481ZM277.187 46.8973C277.498 46.2745 277.187 45.5783 276.262 44.8076H275.794C275.643 44.8076 275.566 44.882 275.566 45.0372C275.566 45.1935 275.487 45.3487 275.332 45.5038C275.175 45.8111 275.098 46.1224 275.098 46.4297C275.098 46.7411 275.332 47.0483 275.794 47.3597C275.794 47.5149 275.873 47.5935 276.028 47.5935C276.802 47.4373 277.187 47.2035 277.187 46.8973ZM274.402 26.6964C274.402 27.3193 274.635 27.6265 275.098 27.6265H276.028V27.3927C276.339 27.3927 276.49 27.3193 276.49 27.163C276.802 26.5444 276.802 26.0778 276.49 25.7706C276.339 25.6154 276.183 25.5368 276.028 25.5368C275.873 25.5368 275.643 25.4592 275.332 25.304C274.868 25.304 274.635 25.5368 274.635 26.0002C274.479 26.1554 274.402 26.3116 274.402 26.4668V26.6964ZM270.224 83.5747C270.224 83.1123 270.147 82.8009 269.99 82.6447C269.84 82.4937 269.683 82.4161 269.528 82.4161C268.91 82.4161 268.52 82.6447 268.368 83.1123C268.368 83.7299 268.443 84.1157 268.598 84.2709C268.753 84.2709 268.832 84.3118 268.832 84.3852C268.832 84.4638 268.91 84.5047 269.065 84.5047C269.528 84.5047 269.913 84.1933 270.224 83.5747ZM276.724 36.9112C277.036 37.2226 277.265 37.3778 277.42 37.3778C277.883 37.3778 278.273 37.145 278.58 36.6815C278.89 36.3701 278.89 36.0629 278.58 35.7526C278.58 35.5963 278.35 35.5187 277.883 35.5187C277.42 35.5187 277.109 35.6739 276.958 35.9853C276.802 36.1374 276.724 36.4488 276.724 36.9112ZM278.813 45.5038C279.124 45.5038 279.28 45.3486 279.28 45.0372C279.28 44.2634 278.89 43.8786 278.117 43.8786C277.809 43.8786 277.654 44.1072 277.654 44.5748C277.654 45.1935 277.961 45.5038 278.58 45.5038H278.813ZM271.154 78.0039C271.154 78.7788 271.539 79.1636 272.313 79.1636C272.624 79.1636 272.775 78.9339 272.775 78.4673C272.775 77.8487 272.468 77.5373 271.851 77.5373H271.617C271.305 77.5373 271.154 77.6935 271.154 78.0039ZM279.977 43.1824C279.977 42.4075 279.587 42.0185 278.813 42.0185C278.506 42.0185 278.35 42.2524 278.35 42.7148C278.35 43.3376 278.735 43.6448 279.509 43.6448C279.82 43.6448 279.977 43.4896 279.977 43.1824Z" fill="white"/>
<path fill-rule="evenodd" clip-rule="evenodd" d="M331.047 89.1446C329.348 89.3008 327.721 89.1445 326.173 88.6821C325.71 90.8484 325.165 92.5523 324.546 93.7895C326.714 93.9458 328.921 94.1376 331.166 94.3714C333.406 94.6011 335.613 94.9492 337.78 95.4158C337.936 95.4158 338.091 95.4934 338.243 95.6454C338.243 96.4192 337.702 97.7383 336.621 99.5931C335.536 101.449 334.221 102.768 332.672 103.542H332.21C331.436 103.542 330.158 103.271 328.377 102.727C326.598 102.186 324.391 101.604 321.761 100.986C319.439 106.404 316.847 111.045 313.984 114.916C311.121 118.786 307.987 120.642 304.584 120.486C300.869 120.486 298.043 119.635 296.109 117.935C294.177 116.231 292.78 114.257 291.932 112.012C291.08 109.771 290.613 107.486 290.535 105.164C290.462 102.846 290.499 100.986 290.654 99.5931C290.654 98.9745 291.039 98.3569 291.814 97.7383L293.439 96.8082H293.673C294.91 96.3416 297.269 95.8006 300.75 95.1819C304.235 94.5633 308.373 94.1009 313.173 93.7895C314.102 89.7674 314.873 85.8973 315.495 82.1823C316.113 78.4674 316.576 75.5263 316.888 73.3601C313.328 78.4674 310.118 82.1456 307.254 84.3853C304.387 86.6302 302.417 88.0635 301.332 88.6821C301.025 88.8384 300.557 88.916 299.94 88.916C297.772 88.2974 295.72 87.253 293.787 85.7819C291.854 84.3119 290.576 83.2676 289.958 82.6448C289.646 82.0261 289.491 81.6413 289.491 81.4861C289.802 77.464 290.191 73.401 290.654 69.297C291.117 65.1973 291.735 61.0556 292.51 56.8783C292.821 54.7121 293.206 52.6224 293.673 50.6081C294.135 48.5971 294.598 46.5074 295.065 44.3411C295.372 44.0339 295.606 43.8787 295.761 43.8787C295.761 44.0339 295.839 44.1073 295.995 44.1073C298.161 44.5749 300.365 45.3079 302.61 46.3155C304.854 47.3231 306.362 48.9074 307.136 51.0747C307.291 51.2299 307.369 51.5371 307.369 52.0048V52.701C307.369 52.852 307.329 52.9705 307.254 53.0491C307.176 53.1267 307.136 53.3196 307.136 53.6258C307.136 53.782 306.979 54.3231 306.673 55.2521C306.362 56.1821 305.976 57.4969 305.509 59.2008C304.428 62.9157 303.462 66.8225 302.61 70.9233C301.758 75.023 301.025 79.0861 300.402 83.1124C300.402 83.2676 300.48 83.341 300.636 83.341C302.958 82.2599 305.161 80.4051 307.254 77.7712C309.343 75.1415 311.313 72.3566 313.173 69.4155C315.028 66.4744 316.654 63.5711 318.047 60.7075C319.439 57.8451 320.524 55.4859 321.299 53.6258C321.606 52.2334 321.995 50.7633 322.458 49.2147C322.921 47.6712 323.388 46.2746 323.85 45.0373C323.85 44.7301 324.084 44.5749 324.546 44.5749L326.636 45.2712C328.34 45.8898 330.236 46.6636 332.324 47.5936C334.414 48.5184 335.847 49.6047 336.621 50.8409C336.621 50.9971 336.658 51.1523 336.735 51.3085C336.814 51.4595 336.773 51.6934 336.621 52.0048C336.31 52.4672 335.884 53.5891 335.343 55.3674C334.803 57.1488 334.221 59.1232 333.602 61.2894C333.291 62.3705 333.021 63.4148 332.788 64.4225C332.558 65.4301 332.288 66.3968 331.976 67.3227V68.0231L331.28 71.2714C330.969 73.4377 330.699 75.1782 330.465 76.493C330.236 77.8121 330.121 78.6226 330.121 78.934V81.9485C330.121 83.6524 330.854 84.0005 332.324 82.9929C333.795 81.9894 335.458 80.4785 337.317 78.4674C339.173 76.4564 340.914 74.3677 342.54 72.2004C344.165 70.0341 345.21 68.6417 345.673 68.0231C345.673 67.7117 345.906 67.6341 346.369 67.7892H350.318C350.624 67.7892 350.703 67.9455 350.547 68.2527C350.084 69.0265 349.195 70.5374 347.88 72.7781C346.561 75.023 344.977 77.3455 343.121 79.7456C341.262 82.1456 339.251 84.271 337.084 86.1301C334.917 87.9859 332.906 88.9936 331.047 89.1446ZM303.191 115.612C304.891 115.456 306.439 113.872 307.832 110.853C309.224 107.835 310.466 104.316 311.547 100.289C307.213 100.289 302.88 100.83 298.547 101.916C298.391 103.464 298.277 105.049 298.198 106.675C298.12 108.301 298.236 109.809 298.547 111.201C298.857 112.594 299.358 113.716 300.054 114.568C300.75 115.42 301.799 115.768 303.191 115.612ZM329.887 59.6632C329.887 60.1266 329.965 60.3594 330.121 60.3594C330.121 60.5156 330.272 60.5932 330.584 60.5932H331.28C331.743 60.5932 331.976 60.1266 331.976 59.2008V58.967C331.976 58.8118 332.055 58.7342 332.21 58.7342C332.21 58.578 332.288 58.3483 332.44 58.038C332.44 57.8817 332.481 57.7675 332.558 57.6888C332.636 57.6112 332.672 57.4969 332.672 57.3407C332.672 57.0335 332.751 56.7231 332.906 56.4117C332.906 56.1045 332.943 55.9116 333.021 55.834C333.099 55.7564 333.136 55.5635 333.136 55.2521V54.5558L333.832 53.6258C334.143 53.3196 334.143 52.9296 333.832 52.4672C333.832 52.312 333.795 52.2334 333.717 52.2334C333.639 52.2334 333.602 52.1558 333.602 52.0048V51.771C333.291 51.4596 332.984 51.4596 332.672 51.771C332.362 51.771 332.21 51.8486 332.21 52.0048C331.899 52.312 331.743 52.5448 331.743 52.701C331.743 52.852 331.665 53.0082 331.514 53.1634V53.3972C331.514 53.5482 331.473 53.6258 331.395 53.6258C331.317 53.6258 331.28 53.7044 331.28 53.8596L331.047 54.5558C331.047 54.7121 331.009 54.8264 330.932 54.9039C330.854 54.9815 330.818 55.0969 330.818 55.2521C330.818 55.5635 330.777 55.7564 330.699 55.834C330.62 55.9116 330.584 56.0269 330.584 56.1821C330.121 56.9559 330.044 57.5745 330.351 58.038C330.351 58.1932 330.313 58.3484 330.236 58.5046C330.158 58.6556 330.121 58.8118 330.121 58.967C329.965 59.1232 329.887 59.3518 329.887 59.6632ZM296.691 46.6636C296.38 47.126 296.457 47.5936 296.921 48.056C296.921 48.3674 297.232 48.5184 297.85 48.5184H298.78L299.01 48.7523C299.165 48.7523 299.243 48.7889 299.243 48.8665C299.243 48.9452 299.321 48.9861 299.476 48.9861H299.94C300.095 49.2933 300.402 49.4485 300.869 49.4485H301.332C301.332 49.4485 301.487 49.5261 301.799 49.6823C301.799 49.9895 302.028 50.1447 302.495 50.1447H302.724L303.191 49.6823C303.498 49.3709 303.576 49.1779 303.421 49.1003C303.265 49.0228 303.113 48.9074 302.958 48.7523C302.958 48.5971 302.802 48.5184 302.495 48.5184L301.799 47.8222H301.565L301.332 47.5936H301.098C301.098 47.4374 301.025 47.3598 300.869 47.3598L300.636 47.126H300.402C300.402 47.126 300.251 47.0484 299.94 46.8974C299.632 46.7412 299.321 46.6636 299.01 46.6636H298.78C298.78 46.2001 298.468 45.9674 297.85 45.9674C297.539 45.8111 297.232 45.8898 296.921 46.2001C296.921 46.3522 296.884 46.4298 296.806 46.4298C296.728 46.4298 296.691 46.5074 296.691 46.6636ZM329.887 96.3416C329.887 96.653 329.965 96.8858 330.121 97.0421C330.272 97.3493 330.661 97.5044 331.28 97.5044H331.514C331.821 97.5044 332.055 97.5411 332.21 97.6198C332.362 97.6974 332.517 97.7383 332.672 97.7383H332.906C333.058 97.7383 333.177 97.775 333.254 97.8526C333.332 97.9302 333.525 97.9679 333.832 97.9679C333.987 97.9679 334.066 97.9302 334.066 97.8526C334.066 97.775 334.143 97.7383 334.299 97.7383C334.455 97.7383 334.528 97.8117 334.528 97.9679H334.762C334.762 98.1231 334.84 98.2007 334.995 98.2007C335.151 98.2007 335.229 98.1231 335.229 97.9679C335.38 97.9679 335.458 97.8892 335.458 97.7383C335.614 97.7383 335.691 97.6607 335.691 97.5044C335.847 97.5044 335.925 97.4269 335.925 97.2706C336.076 97.1154 336.076 96.8858 335.925 96.5744C335.925 96.2672 335.77 96.112 335.458 96.112H334.995L334.762 95.8782C334.762 95.8782 334.606 95.8006 334.299 95.6454H333.602C333.602 95.6454 333.447 95.571 333.136 95.4158H332.672C332.362 95.4158 332.132 95.4934 331.976 95.6454L331.28 95.1819C330.818 95.1819 330.506 95.3382 330.351 95.6454C330.195 95.9568 330.044 96.1896 329.887 96.3416ZM298.084 68.0231C298.084 67.7117 298.043 67.4412 297.965 67.2084C297.888 66.9746 297.54 66.6264 296.921 66.164H296.457C296.302 66.164 296.225 66.3192 296.225 66.6264L295.995 66.8603C295.839 67.1706 295.761 67.4778 295.761 67.7892C295.761 68.0965 296.068 68.4079 296.691 68.7193H296.921C297.232 68.7193 297.617 68.4855 298.084 68.0231ZM325.014 68.0231C325.476 67.5565 325.165 66.9378 324.084 66.164C324.084 65.8526 323.929 65.8526 323.617 66.164C323.465 66.164 323.388 66.2416 323.388 66.3968C323.388 66.5531 323.31 66.704 323.154 66.8603C322.847 67.6341 322.999 68.2527 323.617 68.7193H323.85C324.625 68.7193 325.014 68.4855 325.014 68.0231ZM324.78 58.2708C324.78 58.427 324.935 58.5046 325.243 58.5046C325.71 58.5046 326.095 58.3483 326.406 58.038C326.557 57.5745 326.557 57.2631 326.406 57.1121C326.406 56.8007 326.173 56.6445 325.71 56.6445C325.243 56.6445 324.935 56.8783 324.78 57.3407C324.625 57.4969 324.625 57.8084 324.78 58.2708ZM294.832 108.879C294.987 108.723 294.91 108.415 294.598 107.949C294.598 107.798 294.446 107.719 294.135 107.719C293.829 107.719 293.517 108.026 293.206 108.649C292.899 108.956 292.899 109.268 293.206 109.575C293.361 109.73 293.517 109.809 293.673 109.809C294.135 109.809 294.525 109.497 294.832 108.879ZM299.94 64.7706C300.251 64.7706 300.402 64.5378 300.402 64.0743C300.402 63.4557 300.017 63.1454 299.243 63.1454C298.932 63.1454 298.78 63.3781 298.78 63.8416C298.78 64.4602 299.165 64.7706 299.94 64.7706ZM317.116 107.719C317.273 107.719 317.35 107.564 317.35 107.253H317.116C317.116 106.634 316.809 106.327 316.192 106.327H315.724C315.724 106.634 315.724 106.79 315.724 106.79V107.023C315.724 107.642 316.113 107.949 316.888 107.949C316.888 107.949 316.966 107.875 317.116 107.719ZM299.243 66.6264C299.861 66.6264 300.017 66.4744 299.706 66.164C299.706 65.3892 299.399 65.0044 298.78 65.0044H298.547C298.236 65.3116 298.084 65.5454 298.084 65.7006C298.084 66.3192 298.468 66.6264 299.243 66.6264ZM326.636 63.3781C326.329 63.3781 326.173 63.5343 326.173 63.8416C326.173 64.6154 326.557 65.0044 327.332 65.0044C327.644 65.0044 327.799 64.7705 327.799 64.3082C327.799 63.6853 327.487 63.3781 326.869 63.3781H326.636ZM325.476 65.7006C325.476 66.4744 325.784 66.8603 326.406 66.8603H326.636C326.946 66.8603 327.103 66.6264 327.103 66.164C327.103 65.5454 326.714 65.234 325.94 65.234C325.633 65.234 325.476 65.3892 325.476 65.7006ZM313.173 110.967C313.328 110.967 313.402 110.815 313.402 110.505C313.402 110.042 313.017 109.809 312.243 109.809H312.009C311.702 109.809 311.547 109.964 311.547 110.271C311.858 110.89 312.243 111.201 312.705 111.201C312.862 111.201 313.017 111.123 313.173 110.967ZM295.995 52.701C295.839 53.0082 295.761 53.3972 295.761 53.8596C295.761 54.0158 295.917 54.0934 296.225 54.0934H296.691L296.921 53.8596C297.076 53.5482 297.154 53.1634 297.154 52.701C296.998 52.5448 296.843 52.4672 296.691 52.4672C296.536 52.4672 296.38 52.5448 296.225 52.701H295.995ZM385.14 79.1637C384.984 79.7823 384.907 80.7899 384.907 82.1823C384.907 83.8862 385.644 84.2343 387.114 83.2267C388.585 82.2191 390.248 80.7123 392.103 78.7012C393.963 76.6902 395.703 74.5963 397.325 72.43C398.951 70.2638 399.995 68.8713 400.463 68.2527C400.77 67.9455 401.081 67.7892 401.389 67.7892H405.336L405.57 68.0231V68.2527C405.103 69.0265 404.178 70.5374 402.781 72.7781C401.388 75.023 399.766 77.3864 397.906 79.8599C396.052 82.3375 394.077 84.5048 391.988 86.3597C389.9 88.2198 387.847 89.2232 385.837 89.3784C382.739 89.5346 380.303 89.1079 378.521 88.1002C376.744 87.0968 375.388 85.8197 374.458 84.271C373.532 82.7224 372.992 81.0604 372.836 79.2779C372.681 77.5007 372.681 75.9153 372.836 74.5229C373.143 70.6528 373.648 66.9745 374.344 63.4934C375.04 60.0113 375.543 57.4194 375.855 55.7155C375.855 55.0969 375.777 54.7896 375.621 54.7896C375.621 54.7896 375.388 54.7896 374.925 54.7896C371.985 57.1121 369.392 59.6632 367.147 62.4491C364.903 65.234 363.006 68.0231 361.459 70.808C359.91 73.5928 358.636 76.2634 357.628 78.8155C356.625 81.3708 355.888 83.5748 355.425 85.4338C355.425 85.741 355.385 86.0116 355.306 86.2454C355.228 86.4792 355.192 86.7487 355.192 87.0559V90.0746C355.192 90.386 355.114 90.5422 354.958 90.5422C351.866 92.8595 348.614 93.9458 345.21 93.7895C344.899 93.4781 344.743 93.2495 344.743 93.0933V92.1633C344.436 85.9749 344.551 80.0937 345.091 74.5229C345.636 68.9489 346.447 63.1454 347.532 57.1121C347.839 54.9448 348.228 52.852 348.692 50.8409C349.154 48.8298 349.621 46.7412 350.084 44.5749C350.084 44.2635 350.239 44.1073 350.547 44.1073C350.703 44.1073 350.858 44.1859 351.014 44.3411C353.025 44.8077 355.155 45.5417 357.396 46.5483C359.639 47.5527 361.229 49.1413 362.155 51.3085C362.155 51.4595 362.196 51.6158 362.273 51.771C362.351 51.9261 362.388 52.0782 362.388 52.2334V52.9296C362.232 53.0858 362.155 53.3972 362.155 53.8596C361.848 54.171 361.307 55.9483 360.533 59.2008C359.603 62.2929 358.906 65.1564 358.44 67.7892C360.61 63.4557 362.777 59.8561 364.944 56.9926C367.11 54.1301 369.08 51.8486 370.862 50.1447C372.64 48.4408 374.188 47.2036 375.503 46.4298C376.822 45.656 377.711 45.1936 378.173 45.0373C378.485 44.8821 378.869 44.8077 379.336 44.8077L381.658 45.5039C383.358 45.9674 385.255 46.7003 387.344 47.7079C389.432 48.7156 390.866 49.8375 391.64 51.0747C391.64 51.382 391.562 51.6934 391.407 52.0048C391.251 52.6224 390.903 53.8229 390.362 55.6002C389.821 57.3826 389.24 59.3518 388.622 61.5191C388.003 63.3781 387.499 65.1564 387.114 66.8603C386.725 68.5641 386.377 70.1118 386.065 71.5042C385.758 73.6715 385.525 75.412 385.369 76.7269C385.218 78.0417 385.14 78.8564 385.14 79.1637ZM350.318 54.7896C350.007 55.0969 350.007 55.4083 350.318 55.7155C350.318 56.0269 350.547 56.1821 351.014 56.1821C351.477 56.1821 351.71 55.9483 351.71 55.4859V55.2521C351.866 54.7897 351.788 54.4782 351.477 54.3231C351.939 54.3231 352.173 53.9372 352.173 53.1634C352.328 53.1634 352.407 53.0858 352.407 52.9296V52.2334C352.407 52.2334 352.484 52.1558 352.635 52.0048V51.771C352.635 51.6158 352.714 51.4595 352.869 51.3085V50.8409C353.025 50.5337 353.103 50.1447 353.103 49.6823V49.4485L353.336 49.2147C353.643 49.2147 353.799 48.9074 353.799 48.2898C353.954 47.6712 353.722 47.2036 353.103 46.8974C352.328 46.7412 351.788 46.8188 351.477 47.126C351.165 47.7446 351.014 48.1336 351.014 48.2898C351.014 48.2898 351.092 48.4408 351.243 48.7523V49.2147L351.014 49.4485V49.9119L350.78 50.1447V50.6081C350.624 50.7633 350.547 50.9185 350.547 51.0747V51.3085C349.928 51.9261 349.928 52.5448 350.547 53.1634V53.3972C350.547 54.0159 350.624 54.3231 350.78 54.3231C350.469 54.3231 350.318 54.4782 350.318 54.7896ZM384.443 66.6264C384.907 66.6264 385.14 66.3968 385.14 65.9302V65.7006C385.447 65.7006 385.447 65.5454 385.14 65.234C385.296 65.082 385.369 64.8492 385.369 64.5378C385.525 64.5378 385.603 64.4602 385.603 64.3082V63.8416L385.837 63.6119V63.1454C385.992 63.1454 386.065 62.9891 386.065 62.6819C386.222 62.2153 386.222 61.9081 386.065 61.7519H386.299C386.611 61.4457 386.762 61.1343 386.762 60.8229C387.073 60.048 386.84 59.6632 386.065 59.6632C385.447 59.0446 384.984 59.1232 384.673 59.897C384.366 60.2042 384.211 60.5156 384.211 60.8229L384.443 61.0556V61.2894C384.443 61.2894 384.366 61.3671 384.211 61.5191V61.9857C384.054 62.1419 383.977 62.2929 383.977 62.4491C383.977 62.7595 383.899 62.9157 383.747 62.9157C383.747 63.0667 383.706 63.1862 383.629 63.2638C383.551 63.3372 383.514 63.4557 383.514 63.6119C383.514 63.9192 383.551 64.111 383.629 64.1897C383.706 64.2673 383.747 64.3816 383.747 64.5378V65.234C383.436 65.5454 383.436 65.8526 383.747 66.164C383.899 66.3192 384.133 66.3968 384.443 66.3968V66.6264ZM349.154 58.5046C348.999 58.8118 349.154 59.1232 349.621 59.4304H350.78C350.78 59.5856 350.936 59.3518 351.243 58.7342C351.243 58.578 351.284 58.3483 351.362 58.038C351.44 57.7308 351.321 57.4969 351.014 57.3407C350.858 57.1855 350.469 57.1121 349.85 57.1121C349.388 57.1121 349.154 57.4193 349.154 58.038V58.5046ZM351.243 74.0563C351.71 73.5928 351.399 72.9753 350.318 72.2004C350.007 72.2004 349.85 72.2004 349.85 72.2004C349.699 72.2004 349.621 72.279 349.621 72.43C349.621 72.5863 349.58 72.6639 349.502 72.6639C349.425 72.6639 349.388 72.7415 349.388 72.8966C349.077 73.6715 349.232 74.2901 349.85 74.7525H350.084C350.858 74.7525 351.243 74.5229 351.243 74.0563ZM350.78 64.3082C350.936 64.4602 351.165 64.5378 351.477 64.5378C351.939 64.5378 352.328 64.3815 352.635 64.0743C352.947 63.7629 352.947 63.4557 352.635 63.1454C352.635 62.8381 352.407 62.6819 351.939 62.6819C351.477 62.6819 351.165 62.9157 351.014 63.3781C350.858 63.5344 350.78 63.8416 350.78 64.3082ZM381.192 74.2901C381.036 74.1339 380.807 74.0563 380.496 74.0563C380.032 74.0563 379.643 74.2115 379.336 74.5229V75.4487C379.643 75.7601 379.877 75.9153 380.032 75.9153C380.496 75.9153 380.885 75.6826 381.192 75.2191V74.2901ZM352.635 72.8966C353.103 72.8966 353.336 72.6638 353.336 72.2004C353.336 71.5818 352.947 71.2714 352.173 71.2714C351.554 71.2714 351.399 71.4266 351.71 71.7338C351.71 72.5076 352.018 72.8966 352.635 72.8966ZM353.565 71.0376C353.877 71.0376 354.032 70.8856 354.032 70.5752C354.032 69.8003 353.643 69.4155 352.869 69.4155C352.562 69.4155 352.407 69.5676 352.407 69.8779C352.407 70.6528 352.791 71.0376 353.565 71.0376Z" fill="white"/>
</svg>
