<svg width="520" height="206" viewBox="0 0 520 206" fill="none" xmlns="http://www.w3.org/2000/svg">
<path fill-rule="evenodd" clip-rule="evenodd" d="M174.909 203.091V164C174.909 163.259 175.131 162.629 175.567 162.11C176.013 161.59 176.595 161.332 177.325 161.332C179.016 161.332 179.856 162.22 179.856 163.989V178.625C181.804 175.995 184.531 174.676 188.049 174.676C191.378 174.676 194.019 175.716 195.983 177.78C197.947 179.854 198.93 182.554 198.93 185.888V203.091C198.93 204.793 198.085 205.648 196.399 205.648C195.743 205.648 195.175 205.386 194.691 204.871C194.22 204.357 193.983 203.769 193.983 203.097V186.602C193.983 181.582 191.814 179.066 187.476 179.066C185.319 179.066 183.501 179.775 182.046 181.172C180.592 182.574 179.856 184.35 179.856 186.491V203.097C179.856 204.793 179.016 205.648 177.325 205.648C176.669 205.648 176.102 205.386 175.624 204.871C175.151 204.351 174.909 203.758 174.909 203.091ZM217.278 201.254C220.187 201.254 222.377 200.077 223.832 197.725C225.066 195.771 225.675 193.266 225.675 190.215C225.675 187.268 225.044 184.769 223.774 182.711C222.245 180.284 220.077 179.066 217.278 179.066C214.405 179.066 212.22 180.263 210.724 182.653C209.495 184.675 208.881 187.196 208.881 190.215C208.881 193.229 209.495 195.728 210.724 197.725C212.22 200.077 214.405 201.254 217.278 201.254ZM217.278 205.648C213.203 205.648 209.9 204.053 207.379 200.875C205.085 197.945 203.934 194.395 203.934 190.215C203.934 186.003 205.085 182.406 207.379 179.45C209.863 176.273 213.166 174.676 217.278 174.676C221.432 174.676 224.746 176.273 227.229 179.45C229.493 182.369 230.622 185.962 230.622 190.215C230.622 194.432 229.477 197.982 227.177 200.875C224.693 204.053 221.396 205.648 217.278 205.648ZM247.636 201.254C250.546 201.254 252.736 200.077 254.19 197.725C255.424 195.771 256.033 193.266 256.033 190.215C256.033 187.268 255.403 184.769 254.132 182.711C252.604 180.284 250.435 179.066 247.636 179.066C244.763 179.066 242.579 180.263 241.088 182.653C239.854 184.675 239.245 187.196 239.245 190.215C239.245 193.229 239.854 195.728 241.088 197.725C242.579 200.077 244.763 201.254 247.636 201.254ZM247.636 205.648C243.562 205.648 240.264 204.053 237.743 200.875C235.443 197.945 234.292 194.395 234.292 190.215C234.292 186.003 235.443 182.406 237.743 179.45C240.226 176.273 243.525 174.676 247.636 174.676C251.79 174.676 255.11 176.273 257.593 179.45C259.851 182.369 260.986 185.962 260.986 190.215C260.986 194.432 259.835 197.982 257.535 200.875C255.052 204.053 251.754 205.648 247.636 205.648ZM266.211 203.091V163.78C266.211 162.146 267.014 161.332 268.626 161.332C270.317 161.332 271.157 162.183 271.157 163.901V185.41L282.873 175.453C283.515 174.934 284.181 174.676 284.885 174.676C286.303 174.676 287.006 175.453 287.006 177.018C287.006 177.733 286.713 178.326 286.119 178.819L274.413 188.094L287.794 201.191C288.45 201.857 288.786 202.671 288.786 203.648C288.786 204.982 288.083 205.648 286.67 205.648C285.746 205.648 284.895 205.24 284.113 204.425L271.157 190.965V203.091C271.157 204.793 270.317 205.648 268.626 205.648C267.97 205.648 267.408 205.386 266.925 204.871C266.452 204.351 266.211 203.758 266.211 203.091ZM295.014 190.215C295.014 193.202 295.587 195.665 296.747 197.615C298.118 200.04 300.218 201.254 303.05 201.254C306.095 201.254 308.348 200.114 309.792 197.835C311.026 195.918 311.64 193.376 311.64 190.215C311.64 187.232 311.026 184.733 309.792 182.711C308.348 180.284 306.206 179.066 303.38 179.066C300.408 179.066 298.213 180.248 296.8 182.601C295.609 184.554 295.014 187.085 295.014 190.215ZM316.419 177.234V203.091C316.419 204.793 315.631 205.648 314.056 205.648C313.416 205.648 312.88 205.444 312.428 205.034C311.972 204.629 311.714 204.015 311.64 203.202C311.64 203.532 311.64 202.829 311.64 201.091H311.526C309.351 204.125 306.405 205.648 302.677 205.648C298.691 205.648 295.54 204.037 293.213 200.818C291.113 197.929 290.063 194.432 290.063 190.331C290.063 186.26 291.176 182.7 293.402 179.67C295.887 176.345 299.111 174.676 303.075 174.676C306.374 174.676 309.267 176.031 311.752 178.736C311.752 176.945 311.981 175.816 312.444 175.364C312.906 174.907 313.458 174.676 314.083 174.676C315.642 174.676 316.419 175.527 316.419 177.234ZM323.094 203.091V164C323.094 163.259 323.314 162.629 323.75 162.11C324.196 161.59 324.78 161.332 325.51 161.332C327.201 161.332 328.041 162.22 328.041 163.989V178.625C329.989 175.995 332.714 174.676 336.232 174.676C339.562 174.676 342.204 175.716 344.168 177.78C346.132 179.854 347.114 182.554 347.114 185.888V203.091C347.114 204.793 346.273 205.648 344.582 205.648C343.926 205.648 343.359 205.386 342.882 204.871C342.408 204.357 342.168 203.769 342.168 203.097V186.602C342.168 181.582 339.998 179.066 335.661 179.066C333.502 179.066 331.686 179.775 330.231 181.172C328.777 182.574 328.041 184.35 328.041 186.491V203.097C328.041 204.793 327.201 205.648 325.51 205.648C324.854 205.648 324.292 205.386 323.808 204.871C323.336 204.351 323.094 203.758 323.094 203.091Z" fill="#0F0F0F"/>
<path fill-rule="evenodd" clip-rule="evenodd" d="M34.3441 171.662C109.54 154.862 184.745 146.424 259.949 146.402C335.161 146.386 410.366 154.783 485.567 171.662L484.284 177.35C409.5 160.565 334.72 152.21 259.949 152.232C185.169 152.248 110.389 160.639 35.5997 177.35L34.3441 171.662Z" fill="#0F0F0F"/>
<path fill-rule="evenodd" clip-rule="evenodd" d="M87.8079 26.4958C80.4677 28.2811 72.579 29.8715 64.1458 31.2589C55.7113 32.6503 47.5255 33.3911 39.5898 33.4905C31.65 33.59 24.4549 32.7498 18.0074 30.9645C11.5585 29.1738 6.74833 25.9016 3.57026 21.1385C2.77709 19.7525 2.08475 18.0613 1.49054 16.0824C1.09261 14.4907 0.693354 12.458 0.299456 9.98033C-0.0998188 7.49596 -0.0998188 4.67014 0.299456 1.49341C0.299456 1.29445 0.49841 1.00005 0.892308 0.600769C1.09262 0.600769 1.39108 0.799728 1.78498 1.19901C2.97743 2.38608 5.10957 4.12431 8.18681 6.40302C11.2641 8.68842 15.4813 10.6727 20.8373 12.3585C26.1932 14.0444 32.8895 15.136 40.9287 15.6361C48.964 16.1295 58.5372 15.2839 69.6496 13.1047L85.13 10.1269C85.9231 9.92657 87.7084 9.72762 90.4872 9.53268C93.2647 9.33372 96.2425 9.6335 99.4138 10.4267C102.592 11.2185 105.568 12.7578 108.347 15.0365C111.125 17.3206 112.81 20.9396 113.405 25.9016C114.003 32.251 112.317 39.1987 108.347 46.7392C104.377 54.2811 98.2267 60.6292 89.893 65.7861C91.8733 66.3857 94.2044 67.2259 96.8878 68.3176C99.5671 69.4105 102.045 70.9485 104.33 72.9287C106.609 74.913 108.447 77.3974 109.833 80.3698C111.224 83.3475 111.719 87.0176 111.325 91.3868C110.725 97.142 108.84 103.292 105.669 109.841C102.491 116.389 98.1272 122.244 92.571 127.401C87.0161 132.558 80.3145 136.629 72.4795 139.605C64.6392 142.583 55.7597 143.475 45.8397 142.284C39.4903 141.092 34.1289 138.913 29.7652 135.735C25.7953 132.957 22.5701 129.139 20.0911 124.277C17.6135 119.414 17.3661 112.718 19.3464 104.185C20.7378 98.4286 23.5152 93.8658 27.68 90.4941C31.8489 87.1171 36.5125 84.8384 41.6695 83.646C42.2677 80.4692 43.108 76.5518 44.2009 71.8882C45.2925 67.2259 46.4326 62.6148 47.625 58.0507C48.8175 53.4825 49.909 49.3648 50.8958 45.6947C51.8893 42.0232 52.587 39.3977 52.9809 37.8073C52.9809 37.2131 53.5805 36.6148 54.7662 36.022C56.358 35.4278 58.6891 34.73 61.7609 33.9369C64.8395 33.1437 68.3631 32.7498 72.333 32.7498C73.719 32.7498 74.2124 33.543 73.8185 35.1293C72.6261 37.3139 70.8891 40.8321 68.6091 45.6947C66.325 50.5572 64.2924 56.1659 62.5071 62.5153C61.3146 65.6866 60.3749 69.0113 59.6826 72.4824C58.9835 75.9589 58.2427 79.383 57.4455 82.7533C64.5922 83.7468 69.8486 86.2245 73.2257 90.1944C73.6196 90.5936 73.8185 90.888 73.8185 91.0883C73.8185 91.4863 73.7661 92.379 73.672 93.7663C73.5725 95.1577 73.3722 96.7911 73.0737 98.6759C72.7739 100.561 72.4271 102.4 72.0332 104.185C71.6339 105.97 71.1406 107.262 70.5423 108.056L70.2479 108.349C70.0489 107.756 69.5488 106.816 68.757 105.524C67.9638 104.232 66.9233 102.946 65.6314 101.654C64.3448 100.367 62.8069 99.1747 61.0215 98.0831C59.2362 96.9901 57.2506 96.4443 55.066 96.4443L54.4732 103.591C54.2729 104.185 53.8736 104.484 53.2807 104.484C49.5098 104.285 46.1381 102.794 43.1617 100.015C42.7624 99.621 42.5151 99.2217 42.4156 98.8278C42.3161 98.4286 42.0688 98.036 41.6695 97.6367C39.4903 99.2217 37.752 101.806 36.4655 105.376C35.1735 108.948 34.5807 112.665 34.6748 116.536C34.7742 120.406 35.6669 123.977 37.3581 127.254C39.0439 130.525 41.769 132.558 45.5399 133.356C56.8513 135.735 66.7714 133.651 75.3054 127.102C83.838 120.554 89.7936 110.833 93.1652 97.9352C94.3577 92.7728 94.804 88.5098 94.5042 85.1328C94.2044 81.7612 93.4112 79.0308 92.1247 76.951C90.8328 74.8659 89.2477 73.2796 87.3616 72.188C85.4768 71.095 83.6391 70.3502 81.8538 69.9563C80.4677 70.5492 78.3302 71.2953 75.4573 72.188C72.579 73.0806 70.3474 73.7259 68.757 74.1198C68.3631 74.1198 68.0633 74.0203 67.8643 73.8268L67.2701 65.7861C67.2701 65.3922 67.5699 65.1933 68.1628 65.1933C69.1549 64.993 70.9886 64.4471 73.672 63.5545C76.35 62.6618 79.1758 61.2234 82.1522 59.2377C85.13 57.2535 88.0553 54.5271 90.9336 51.0506C93.8105 47.5794 95.9427 43.1632 97.3341 37.8073C97.728 35.6281 97.728 33.6425 97.3341 31.8572C96.9362 30.2654 96.19 28.8794 95.1024 27.6869C94.0108 26.4958 92.0723 26.0011 89.2948 26.2014C88.9009 26.2014 88.6482 26.2485 88.5541 26.3479C88.4546 26.4488 88.3027 26.4958 88.1077 26.4958H87.8079ZM6.54804 10.7197C6.54804 11.3193 6.74835 11.8127 7.14628 12.212L8.93294 13.6975L9.82558 14.2917C10.4184 14.2917 10.9118 14.3912 11.3111 14.5901C11.3111 14.5901 11.5114 14.7905 11.9053 15.1897C12.1043 15.1897 12.4041 15.3833 12.798 15.7826L14.5887 16.6753L16.6671 17.5679C16.8674 17.9672 17.2666 18.2146 17.8595 18.3141C18.4537 18.4135 18.9525 18.4606 19.3464 18.4606H20.239L20.5375 18.7604H21.7299C22.3241 18.7604 22.6226 18.6609 22.6226 18.4606L23.2168 17.8677C22.8229 17.2681 22.5231 16.9751 22.3241 16.9751L20.5375 16.0824H19.9446C19.9446 16.0824 19.7456 15.9816 19.3464 15.7826L18.1593 15.1897C18.1593 15.1897 18.0598 15.0889 17.8595 14.8899H17.2666V14.5901C16.8674 14.3912 16.4734 14.2917 16.0742 14.2917L14.8817 13.6975C14.8817 13.3036 14.6828 13.1047 14.2889 13.1047C13.8896 12.9044 13.5952 12.8048 13.3962 12.8048H13.0964L12.2038 12.212C12.2038 12.212 12.0048 12.0117 11.6109 11.6124L9.82558 10.1269C9.02703 9.7276 8.53367 9.53268 8.33336 9.53268H7.74048C7.54017 9.53268 7.34121 9.6335 7.14628 9.82709L6.54804 10.7197ZM30.3634 95.5516C30.5583 95.3513 30.6578 95.1577 30.6578 94.9574C30.6578 94.7585 30.7573 94.4587 30.9563 94.0648L30.6578 93.7663C30.2639 93.1721 29.8646 92.8737 29.4707 92.8737C28.8725 92.8737 28.2783 93.1721 27.68 93.7663C27.68 94.1656 27.5859 94.3592 27.3856 94.3592C27.1867 94.5595 27.0858 94.7585 27.0858 94.9574C26.8869 94.9574 26.7874 95.0058 26.7874 95.1053C26.7874 95.2048 26.6933 95.2572 26.493 95.2572C26.493 95.4521 26.3935 95.5516 26.1932 95.5516C25.7952 95.9509 25.6003 96.244 25.6003 96.4443H25.3005C25.3005 96.8436 25.2011 97.0425 25.0021 97.0425V97.3369L24.1094 98.2296C24.1094 98.4286 24.061 98.6289 23.9616 98.8278C23.8621 99.0228 23.815 99.2217 23.815 99.422V99.7205C23.815 100.315 23.815 100.613 23.815 100.613C23.6147 100.613 23.5152 100.662 23.5152 100.761C23.5152 100.86 23.4157 100.908 23.2168 100.908C23.2168 101.108 23.1684 101.354 23.0689 101.654C22.9694 101.953 23.0165 102.2 23.2168 102.4L24.4079 102.993C25.0021 102.993 25.3005 102.599 25.3005 101.806V101.207C25.6998 100.813 25.8947 100.414 25.8947 100.015C26.0937 100.015 26.1932 99.9208 26.1932 99.7205V99.422C26.1932 99.2217 26.294 99.1222 26.493 99.1222C26.493 99.1222 26.6933 99.0228 27.0858 98.8278L27.3856 98.5294V98.2296C27.3856 98.2296 27.5859 98.036 27.9798 97.6367C28.3778 97.2374 28.5727 96.943 28.5727 96.7441C28.5727 96.5438 28.6722 96.4443 28.8725 96.4443L29.171 96.1499C29.5649 96.1499 29.9641 95.9509 30.3634 95.5516ZM53.5805 44.0559C53.7741 44.2562 53.8265 44.4552 53.727 44.6541C53.6276 44.8544 53.7741 45.048 54.1734 45.2483H55.3658C55.7597 45.2483 56.1576 45.048 56.5515 44.6541C56.5515 44.6541 56.358 44.3557 55.9587 43.7614C56.358 43.7614 56.5515 43.5625 56.5515 43.1632C56.7519 42.9696 56.8513 42.7693 56.8513 42.5704V42.2706C57.0516 42.2706 57.1511 42.1764 57.1511 41.9761C57.1511 41.9761 57.2506 41.8767 57.4455 41.6777C57.4455 41.6777 57.545 41.5769 57.744 41.3779L58.0438 41.0835C58.2428 41.0835 58.3906 41.0311 58.4901 40.9316C58.5896 40.8321 58.7361 40.785 58.9364 40.785C59.1354 40.1908 59.1354 39.7915 58.9364 39.5926C58.9364 39.3977 58.884 39.2982 58.7899 39.2982C58.6891 39.2982 58.6367 39.1987 58.6367 38.9984C58.2428 38.4055 57.744 38.1057 57.1511 38.1057C56.5515 38.1057 56.2585 38.4055 56.2585 38.9984V39.2982C56.2585 39.2982 56.1577 39.3977 55.9587 39.5926C55.7597 39.5926 55.6589 39.6921 55.6589 39.8924V40.1908H55.3658L55.066 40.4853C54.8671 40.4853 54.7662 40.5847 54.7662 40.785C54.5726 40.984 54.6667 41.2784 55.066 41.6777C54.8671 41.6777 54.7662 41.7301 54.7662 41.8242C54.7662 41.9237 54.8671 41.9761 55.066 41.9761C54.8671 41.9761 54.7662 42.0232 54.7662 42.124C54.7662 42.2235 54.6668 42.2706 54.4732 42.2706C54.4732 42.6698 54.5726 42.9696 54.7662 43.1632H54.4732C54.0739 43.1632 53.7741 43.463 53.5805 44.0559ZM31.2561 18.7604C30.4575 19.1543 30.2639 19.7525 30.6578 20.5457C30.8568 20.9396 31.1041 21.1385 31.4026 21.1385C31.7024 21.1385 31.9497 21.2394 32.1487 21.4384H33.934C34.9275 21.4384 35.5204 21.1385 35.7193 20.5457V19.9474C35.7193 19.7525 35.4209 19.4527 34.8267 19.0548C34.4274 18.6609 33.934 18.4606 33.3358 18.4606C32.9419 18.4606 32.5426 18.5076 32.1487 18.6071C31.7494 18.7079 31.451 18.7604 31.2561 18.7604ZM58.0438 61.0231C58.0438 61.0231 57.8435 61.1225 57.4455 61.3229C57.4455 61.3229 57.3501 61.4223 57.1511 61.6226C56.1576 61.6226 55.5594 62.2155 55.3658 63.408L55.6589 63.701C56.0582 64.1003 56.6524 64.3006 57.4455 64.3006C58.4377 64.3006 59.1354 63.8019 59.5293 62.8084C59.5293 61.8162 59.0359 61.2234 58.0438 61.0231ZM99.1207 98.2296C97.728 98.2296 97.0356 98.7283 97.0356 99.7205C97.0356 100.908 97.6285 101.507 98.8209 101.507C99.0199 101.507 99.2202 101.406 99.4138 101.207L99.7136 100.908C100.507 100.514 100.906 99.8213 100.906 98.8278C100.906 98.6289 100.805 98.5294 100.606 98.5294C100.212 98.3291 99.7136 98.2296 99.1207 98.2296ZM101.199 101.507C101.006 101.507 100.805 101.607 100.606 101.806V102.698C100.606 103.491 101.105 103.885 102.097 103.885C102.097 103.885 102.193 103.786 102.392 103.591V103.885C101.998 104.877 102.392 105.477 103.584 105.671H104.177V104.778C104.177 104.384 104.229 103.985 104.33 103.591C104.43 103.192 104.077 102.993 103.284 102.993C103.085 102.794 102.89 102.794 102.691 102.993C102.491 102.599 102.345 102.299 102.245 102.1C102.146 101.901 101.799 101.706 101.199 101.507ZM23.5152 18.1608C23.5152 18.5601 23.6147 18.8598 23.815 19.0548V19.3532C23.815 19.7525 24.2089 19.9474 25.0021 19.9474H26.1932C26.7874 19.7525 27.0858 19.3532 27.0858 18.7604C27.0858 18.3611 26.6933 17.9672 25.8947 17.5679H24.7077C24.3084 17.5679 24.1094 17.6674 24.1094 17.8677C23.9091 17.8677 23.7155 17.9672 23.5152 18.1608ZM23.815 112.519C24.2089 112.32 24.5557 112.12 24.8542 111.926C25.154 111.726 25.3005 111.127 25.3005 110.139C25.3005 109.94 25.2535 109.841 25.154 109.841C25.0545 109.841 25.0021 109.741 25.0021 109.541H24.4079C24.2089 109.741 24.0086 109.841 23.815 109.841C23.4157 110.04 23.0689 110.235 22.7704 110.434C22.4706 110.634 22.3241 111.227 22.3241 112.219V112.819H22.9224C23.3163 112.618 23.6147 112.519 23.815 112.519ZM101.799 23.5235C101.006 23.5235 100.606 24.1163 100.606 25.3087C100.606 26.3009 101.105 26.8951 102.097 27.0941C102.691 27.0941 102.99 26.8951 102.99 26.4958C102.99 24.9095 102.791 24.0168 102.392 23.8165C102.392 23.6176 102.193 23.5235 101.799 23.5235ZM45.5399 25.9016C45.3409 26.1019 45.2455 26.4958 45.2455 27.0941C45.2455 27.488 45.6394 27.6869 46.4325 27.6869H46.7323C46.9313 27.6869 47.1316 27.5875 47.3252 27.3885C47.7245 26.9946 47.9234 26.4958 47.9234 25.9016C47.9234 25.3088 47.5255 25.009 46.7323 25.009H46.4325C45.8397 25.009 45.5399 25.3088 45.5399 25.9016ZM58.0438 24.4161C58.0438 25.2093 58.1433 25.7027 58.3382 25.9016C58.5372 25.9016 58.6367 25.9487 58.6367 26.0495C58.6367 26.149 58.7361 26.2014 58.9364 26.2014C59.5293 26.2014 60.0281 25.8021 60.422 25.009C60.422 24.4161 60.3225 24.0168 60.1289 23.8165C59.9286 23.6176 59.7296 23.5235 59.5293 23.5235C58.7361 23.5235 58.2428 23.8165 58.0438 24.4161ZM103.584 24.4161C103.384 25.009 103.485 25.5023 103.882 25.9016C103.882 25.9016 104.077 26.0011 104.477 26.2014C105.27 26.2014 105.669 25.8021 105.669 25.009C106.063 24.6097 106.063 24.2158 105.669 23.8165C105.469 23.6176 105.27 23.5235 105.07 23.5235C104.276 23.5235 103.783 23.8165 103.584 24.4161ZM50.8958 63.1082C50.3029 63.1082 50.0032 63.4079 50.0032 64.0008C50.0032 64.993 50.7022 65.4877 52.0883 65.4877C52.4875 65.4877 52.6865 65.1932 52.6865 64.595C52.6865 64.2011 52.5346 63.8019 52.2402 63.408C51.9417 63.0087 51.4954 62.9092 50.8958 63.1082ZM103.882 95.8514C103.485 96.0504 103.284 96.3448 103.284 96.7441C103.284 97.7362 103.882 98.2296 105.07 98.2296C105.27 98.2296 105.469 98.1301 105.669 97.9352C106.262 97.9352 106.361 97.7362 105.962 97.3369C105.962 96.3448 105.369 95.8514 104.177 95.8514H103.882ZM108.047 31.2589C107.454 31.8571 107.454 32.3505 108.047 32.7498C108.047 32.7498 108.248 32.8493 108.641 33.0442C109.039 33.0442 109.439 32.6503 109.833 31.8572C110.232 31.4579 110.331 31.0586 110.132 30.6647C109.932 30.4657 109.733 30.3662 109.54 30.3662C108.741 30.3662 108.248 30.6647 108.047 31.2589ZM39.8842 19.653C39.4903 20.0469 39.4903 20.4462 39.8842 20.8401C40.0831 21.0391 40.2834 21.1385 40.4824 21.1385C41.0766 21.1385 41.57 20.8401 41.9693 20.2459C42.1682 19.653 42.0688 19.1543 41.6695 18.7604C41.6695 18.7604 41.4759 18.6609 41.0766 18.4606C40.6773 18.4606 40.2834 18.8599 39.8842 19.653ZM98.5211 47.0336C98.5211 47.6319 98.821 48.1266 99.4138 48.5245H100.306C100.706 48.5245 100.906 48.4721 100.906 48.3726C100.906 48.2731 101.006 48.2261 101.199 48.2261C101.399 47.8268 101.199 47.3334 100.606 46.7392C100.606 46.5403 100.507 46.4408 100.306 46.4408H99.7136C98.9204 46.4408 98.5211 46.6397 98.5211 47.0336ZM105.962 28.5796C106.162 28.3806 106.063 27.9867 105.669 27.3885C105.669 27.1936 105.469 27.0941 105.07 27.0941C104.876 27.0941 104.477 27.3885 103.882 27.9867C103.485 28.7799 103.584 29.2733 104.177 29.4736C104.177 29.4736 104.377 29.5731 104.776 29.772C105.17 29.772 105.568 29.3728 105.962 28.5796ZM100.013 29.4736C99.8131 30.0718 99.9126 30.5652 100.306 30.9645H100.906C101.3 30.9645 101.698 30.6647 102.097 30.0718C102.292 29.6726 102.193 29.2733 101.799 28.8794C101.799 28.6804 101.598 28.5796 101.199 28.5796C100.606 28.5796 100.212 28.8794 100.013 29.4736ZM102.097 90.1944C101.898 90.3947 101.898 90.5936 102.097 90.7886V91.0883C102.097 91.8802 102.491 92.2795 103.284 92.2795C103.684 92.2795 103.882 92.18 103.882 91.981C103.882 91.981 103.882 91.7807 103.882 91.3868C103.882 90.5936 103.584 90.0949 102.99 89.8959H102.691L102.097 90.1944ZM52.6865 70.849C52.6865 70.6487 52.6865 70.4027 52.6865 70.1029C52.6865 69.8044 52.3881 69.5571 51.7939 69.3568C51.5949 69.1632 51.3959 69.1632 51.1956 69.3568C50.9966 69.3568 50.8958 69.5571 50.8958 69.9563V70.2507C50.8958 70.849 51.2951 71.3424 52.0883 71.7417C52.2886 71.7417 52.4875 71.6422 52.6865 71.4419V70.849ZM52.9809 69.3568C53.5805 68.9642 53.7741 68.6644 53.5805 68.4641C53.5805 67.6723 53.1812 67.2784 52.3881 67.2784C51.7939 67.2784 51.4954 67.472 51.4954 67.8712C51.4954 68.8634 51.9888 69.3568 52.9809 69.3568ZM102.097 92.5739C101.698 92.5739 101.499 92.8736 101.499 93.4665C101.499 94.0648 101.998 94.3592 102.99 94.3592H103.284C103.684 94.3592 103.882 94.0648 103.882 93.4665C103.485 92.8736 102.99 92.5739 102.392 92.5739H102.097ZM101.199 108.648C101.199 108.449 101.199 108.302 101.199 108.202C101.199 108.103 100.906 107.955 100.306 107.756C100.113 107.557 99.9126 107.456 99.7136 107.456C99.1207 107.456 98.8209 107.656 98.8209 108.056V108.349C98.8209 108.748 99.0199 108.948 99.4138 108.948C99.6141 109.147 99.8131 109.247 100.013 109.247H100.306C100.906 109.247 101.199 109.048 101.199 108.648ZM94.6507 107.163C94.4571 107.163 94.3577 107.456 94.3577 108.056C94.1573 108.254 94.2044 108.449 94.5042 108.648C94.804 108.847 95.1495 108.948 95.5488 108.948H95.8432C95.8432 108.948 96.143 108.648 96.7358 108.056C96.143 107.456 95.6442 107.163 95.2503 107.163H94.6507ZM27.3856 114.304C26.9864 113.711 26.6933 113.411 26.493 113.411C26.294 113.411 25.9942 113.61 25.6003 114.004C25.6003 114.604 25.9942 114.998 26.7874 115.197H27.3856V114.304ZM70.2479 108.349C70.2479 108.349 70.3474 108.349 70.5423 108.349H70.2479ZM151.502 102.698C151.309 102.893 151.009 102.993 150.61 102.993C149.618 102.794 147.932 102.247 145.554 101.354C143.169 100.461 141.184 98.7284 139.598 96.1499C139.598 95.9509 139.898 95.5516 140.491 94.9574C143.668 93.9653 146.345 92.2795 148.53 89.8959C150.711 87.5164 152.447 85.0333 153.739 82.4549C155.026 79.8764 156.019 77.4969 156.712 75.3123C157.411 73.1277 157.758 71.7417 157.758 71.1434H157.158C153.194 74.1198 149.618 77.3974 146.446 80.968C143.268 84.5386 140.491 88.1106 138.111 91.6812C135.728 95.2572 133.742 98.6759 132.157 101.953C130.571 105.224 129.378 108.056 128.585 110.434C128.585 110.833 128.486 111.18 128.287 111.48C128.092 111.773 127.992 112.12 127.992 112.519C127.793 113.511 127.692 114.158 127.692 114.451C127.692 114.75 127.692 115.397 127.692 116.389C127.692 116.783 127.593 116.982 127.394 116.982C125.408 118.374 123.376 119.466 121.292 120.26C119.212 121.053 117.075 121.346 114.895 121.152C114.496 121.152 114.297 120.852 114.297 120.26V119.067C114.695 111.326 115.541 103.838 116.827 96.5962C118.119 89.3501 119.758 81.8606 121.738 74.1198C122.535 71.3424 123.329 68.6644 124.122 66.0859C124.915 63.5074 125.808 60.8295 126.8 58.0507C126.8 57.6514 127 57.4524 127.394 57.4524C127.593 57.4524 127.692 57.5049 127.692 57.599C127.692 57.6998 127.793 57.7522 127.992 57.7522C130.372 58.3451 133.003 59.2902 135.88 60.5767C138.758 61.8687 140.59 63.9013 141.383 66.6788C141.383 66.8791 141.436 67.0781 141.535 67.2784C141.636 67.472 141.683 67.6723 141.683 67.8712L141.383 68.171V68.7639C141.184 68.9642 141.089 69.3568 141.089 69.9563C140.491 70.5492 139.598 72.9287 138.406 77.0976C136.819 80.2756 135.533 83.8463 134.541 87.8162C137.912 82.2546 141.136 77.6447 144.213 73.9733C147.287 70.3032 150.116 67.3725 152.695 65.1933C155.273 63.0087 157.411 61.4223 159.097 60.4302C160.783 59.438 161.921 58.8439 162.521 58.6449C163.114 58.4446 163.707 58.3451 164.306 58.3451L166.984 59.2377C168.57 59.836 170.356 60.5297 172.34 61.3229C174.326 62.116 176.011 63.1082 177.403 64.3006C177.598 64.6945 177.797 65.0938 177.996 65.4877C178.196 65.8856 178.395 66.4798 178.59 67.2784C178.59 67.6723 178.543 67.9707 178.442 68.171C178.343 68.3646 178.296 68.6644 178.296 69.0637C177.896 72.0361 177.15 74.8659 176.064 77.5439C174.971 80.2232 173.632 82.6538 172.042 84.8384C170.256 87.4169 168.323 89.6956 166.238 91.6812C164.154 93.6668 162.169 95.4038 160.284 96.8906C158.398 98.3815 156.665 99.621 155.08 100.613C153.488 101.607 152.395 102.299 151.802 102.698H151.502ZM125.609 71.1434C125.609 71.9406 125.609 72.3345 125.609 72.3345C126.008 72.7338 126.401 72.9287 126.8 72.9287C127.394 72.9287 127.692 72.6343 127.692 72.0361V71.7417C127.893 71.1434 127.893 70.7495 127.692 70.5492C128.287 70.5492 128.585 70.0558 128.585 69.0637V68.7639C128.585 68.7639 128.686 68.6644 128.885 68.4641C128.885 68.2651 128.984 68.0702 129.179 67.8712V67.5714C129.378 67.5714 129.479 67.472 129.479 67.2784V66.6788C129.678 66.6788 129.778 66.4798 129.778 66.0859C129.978 65.6866 130.072 65.3922 130.072 65.1933C130.072 64.993 130.171 64.794 130.372 64.595V64.3006C130.965 63.701 131.264 63.2077 131.264 62.8084C131.463 62.0165 131.164 61.4223 130.372 61.0231C129.778 60.6292 129.179 60.73 128.585 61.3229C127.992 61.9157 127.692 62.4145 127.692 62.8084V63.408C127.692 63.408 127.793 63.6069 127.992 64.0008C127.793 64.0008 127.692 64.1003 127.692 64.3006C127.692 64.3006 127.593 64.4996 127.394 64.8935L127.1 65.1933C127.1 65.3922 127 65.5872 126.8 65.7861V66.9786C126.008 67.7718 125.907 68.4641 126.501 69.0637V69.3568C126.107 69.756 126.207 70.1499 126.8 70.5492H126.501L126.207 70.849C126.008 70.849 125.907 70.896 125.907 70.9955C125.907 71.095 125.808 71.1434 125.609 71.1434ZM171.149 77.6918C170.755 78.0911 170.555 78.489 170.555 78.8829L171.447 79.7756H171.747C171.941 79.7756 172.241 79.5766 172.64 79.1827L172.934 78.8829V77.9902L174.125 76.7991V76.2049L174.425 75.9065V75.3123C174.625 75.3123 174.72 75.2128 174.72 75.0138V74.7194C174.919 74.5191 175.019 74.3201 175.019 74.1198L175.618 73.2272V71.1434C176.21 70.9485 176.51 70.3502 176.51 69.3568C176.51 68.5649 176.31 68.171 175.912 68.171C175.912 67.9707 175.811 67.8712 175.618 67.8712C175.218 67.6723 174.625 67.7717 173.827 68.171C173.433 68.5649 173.233 69.2573 173.233 70.2507V70.5492C173.632 70.5492 173.632 70.7495 173.233 71.1434V71.4419C173.233 71.6422 173.133 71.8411 172.934 72.0361V72.6343C172.739 72.8333 172.64 73.0282 172.64 73.2272C172.64 73.6264 172.54 73.9209 172.34 74.1198L171.747 75.3123V75.6121C171.747 76.006 171.847 76.3044 172.042 76.5047L171.747 76.7991C171.747 76.7991 171.648 76.9981 171.447 77.3974L171.149 77.6918ZM123.823 75.9065C123.823 76.5047 124.122 76.8986 124.716 77.0976C124.716 77.0976 124.816 77.1984 125.014 77.3974H125.609C125.808 77.3974 125.907 77.2979 125.907 77.0976C126.107 77.0976 126.401 76.8986 126.8 76.5047C126.8 76.1054 126.8 75.7062 126.8 75.3123C126.8 74.913 126.7 74.6199 126.501 74.4196C126.301 74.2206 125.808 74.1198 125.014 74.1198C124.422 74.1198 124.122 74.6199 124.122 75.6121L123.823 75.9065ZM124.716 95.8514C125.314 95.4521 125.014 94.659 123.823 93.4665H123.229C123.03 93.4665 122.929 93.519 122.929 93.6184C122.929 93.7193 122.83 93.7663 122.631 93.7663V94.3592C122.436 94.7585 122.237 95.1577 122.037 95.5516C121.838 95.9509 122.138 96.3448 122.929 96.7441L123.229 97.0425C124.221 96.6432 124.716 96.244 124.716 95.8514ZM161.328 83.0531C160.929 83.447 160.735 83.8463 160.735 84.2402C161.129 84.6395 161.428 84.8384 161.628 84.8384C162.221 84.8384 162.714 84.5386 163.114 83.9458C163.513 83.5465 163.607 83.1472 163.413 82.7533C163.413 82.354 163.114 82.1604 162.521 82.1604C161.921 82.1604 161.527 82.4549 161.328 83.0531ZM125.609 83.3475C125.609 83.5465 125.808 83.646 126.207 83.646C127 83.646 127.593 83.447 127.992 83.0531V81.8607C127.593 81.4614 127.295 81.2678 127.1 81.2678C126.301 81.2678 125.808 81.5622 125.609 82.1604V83.3475ZM126.8 94.3592C127.593 94.3592 127.793 94.1656 127.394 93.7663C127.394 92.7729 127.1 92.2795 126.501 92.2795C125.907 92.2795 125.508 92.5739 125.314 93.1721C125.314 93.9653 125.808 94.3592 126.8 94.3592ZM166.684 81.5622C166.485 81.9601 166.386 82.4549 166.386 83.0531C166.585 83.248 166.785 83.3475 166.984 83.3475C167.577 83.3475 167.877 83.1472 167.877 82.7533C168.076 82.5543 168.177 82.1605 168.177 81.5622L167.577 80.968C166.984 80.968 166.684 81.1683 166.684 81.5622ZM128.287 91.981C128.686 91.981 128.885 91.7807 128.885 91.3868C128.885 90.3946 128.386 89.8959 127.394 89.8959C127 89.8959 126.8 90.1943 126.8 90.7886C126.8 91.5817 127.295 91.981 128.287 91.981Z" fill="#0F0F0F"/>
<path fill-rule="evenodd" clip-rule="evenodd" d="M236.933 77.9925C235.741 78.1928 234.056 78.1928 231.871 77.9925C229.686 77.7936 227.007 77.893 223.836 78.2923C225.422 80.6718 225.821 83.9481 225.023 88.1129C224.828 88.3118 224.728 88.7111 224.728 89.304C223.142 96.0527 220.359 101.656 216.395 106.119C212.425 110.588 207.96 113.613 202.998 115.199C201.412 115.598 199.821 115.945 198.235 116.24C196.649 116.538 194.963 116.59 193.178 116.391C189.802 116.191 187.176 115.446 185.29 114.16C183.405 112.868 181.967 111.329 180.974 109.543C179.981 107.758 179.335 105.973 179.036 104.187C178.742 102.402 178.59 101.009 178.59 100.017V99.7228C178.59 91.783 180.229 84.9402 183.505 79.185C186.777 73.4297 189.802 69.066 192.579 66.0882C193.772 64.8958 195.064 63.7033 196.45 62.5176C197.841 61.3251 199.328 60.2322 200.913 59.24H201.213C201.806 58.8461 203.051 58.3003 204.935 57.6013C206.822 56.9089 208.954 56.4626 211.332 56.2623C213.717 56.2623 215.797 56.6615 217.582 57.4547C218.18 57.854 218.726 58.2479 219.219 58.6472C219.719 59.0411 220.265 59.4403 220.858 59.8383C222.444 61.4246 223.389 63.1105 223.684 64.8958C223.982 66.6811 223.935 68.3669 223.536 69.9586C225.721 69.5593 228.299 69.1654 231.277 68.7662C234.255 68.3669 237.626 67.973 241.397 67.5737C241.397 67.5737 241.497 67.6746 241.696 67.8735C241.696 68.6667 241.444 70.3055 240.951 72.7831C240.451 75.2675 239.213 77.0004 237.227 77.9925H236.933ZM216.689 91.3891C217.681 88.012 217.88 85.5344 217.287 83.9481C216.689 82.3563 215.896 81.3642 214.904 80.9703C213.717 80.372 212.225 80.2779 210.439 80.6718C210.439 80.8708 210.392 80.9703 210.293 80.9703C210.193 80.9703 210.141 80.8708 210.141 80.6718C209.747 80.4715 209.247 79.9311 208.654 79.0331C208.061 78.1404 207.662 77.0999 207.461 75.9088C207.268 75.5149 207.168 75.1156 207.168 74.7217C207.168 74.3224 207.362 74.1221 207.761 74.1221C207.96 74.1221 208.455 73.9232 209.247 73.5293C212.225 70.5515 214.51 66.8814 216.095 62.5176C213.516 63.5097 210.985 65.295 208.507 67.8735C206.023 70.452 203.692 73.829 201.513 77.9925C200.519 79.7778 199.475 82.0632 198.387 84.8407C197.295 87.6195 196.45 90.5959 195.857 93.7686C195.857 94.7608 195.756 95.4544 195.557 95.8537V99.7228C195.756 100.91 196.003 102.102 196.303 103.295C196.602 104.486 197.243 105.573 198.235 106.566L199.428 107.458C199.627 107.659 199.821 107.758 200.02 107.758C200.221 107.758 200.519 107.857 200.913 108.058H201.806C202.599 108.058 203.591 107.905 204.784 107.611C205.976 107.312 207.268 106.566 208.654 105.378C210.045 104.187 211.431 102.502 212.824 100.317C214.21 98.1324 215.502 95.16 216.689 91.3891ZM199.726 64.8958C200.32 64.8958 200.814 64.6968 201.213 64.3029C201.612 63.9036 201.806 63.4103 201.806 62.8107C201.612 62.8107 201.513 62.7112 201.513 62.5176C201.113 61.918 200.719 61.6249 200.32 61.6249C199.527 61.6249 198.929 61.8185 198.535 62.2178C198.535 62.4167 198.482 62.5176 198.387 62.5176C198.288 62.5176 198.235 62.6171 198.235 62.8107V63.1105L197.043 64.0031C196.849 64.0031 196.75 64.0555 196.75 64.1496C196.75 64.2505 196.649 64.3029 196.45 64.3029L195.857 65.1956C195.657 65.1956 195.357 65.3945 194.963 65.7884C194.764 65.9887 194.664 66.388 194.664 66.9809C194.07 67.5737 193.971 67.973 194.365 68.1733H194.07C194.07 68.1733 193.871 68.2674 193.472 68.4664C193.078 68.8656 192.879 69.1655 192.879 69.359C192.879 69.7583 193.178 70.0581 193.772 70.253H194.07C194.265 70.253 194.565 70.0581 194.963 69.6588C194.963 69.4599 195.011 69.312 195.111 69.2125C195.21 69.113 195.257 68.9665 195.257 68.7662C195.657 68.7662 196.056 68.4664 196.45 67.8735C196.649 67.8735 196.75 67.774 196.75 67.5737V67.2807H197.043C197.243 67.0804 197.442 66.9809 197.642 66.9809L198.235 66.388C198.235 66.388 198.335 66.2872 198.535 66.0882L199.726 64.8958ZM233.656 69.359C233.262 69.5594 233.01 69.8067 232.91 70.1052C232.816 70.405 232.563 70.7518 232.169 71.1457C232.37 71.9429 232.863 72.3368 233.656 72.3368H234.255C234.255 72.3368 234.45 72.2373 234.847 72.0383C235.048 72.0383 235.294 71.9913 235.594 71.8905C235.888 71.791 236.134 71.7439 236.334 71.7439H236.634C237.227 71.7439 237.626 71.6445 237.825 71.4441H239.012L239.312 71.1457C239.711 70.7518 239.811 70.253 239.611 69.6588V69.359C239.611 68.9665 239.412 68.7662 239.012 68.7662C238.819 68.7662 238.519 68.8657 238.12 69.066H237.825C237.825 69.066 237.726 68.9665 237.527 68.7662C237.326 68.7662 237.227 68.8132 237.227 68.9127C237.227 69.0135 237.127 69.066 236.933 69.066H235.741C235.342 69.066 234.948 69.2596 234.549 69.6588C234.549 69.6588 234.349 69.5594 233.955 69.359H233.656ZM191.987 73.5293C192.38 73.5293 192.679 73.3303 192.879 72.931C193.472 72.3368 193.572 71.8434 193.178 71.4441L192.285 70.5515H191.987C191.392 70.5515 190.894 70.9508 190.5 71.7439C190.5 72.1378 190.447 72.4376 190.348 72.6366C190.248 72.8355 190.4 73.0305 190.794 73.2295C190.794 73.4298 190.993 73.5293 191.392 73.5293H191.987ZM192.285 90.4964C192.285 89.8982 192.285 89.6038 192.285 89.6038C192.285 89.0055 191.886 88.7111 191.094 88.7111C190.695 88.7111 190.301 88.906 189.901 89.304C189.901 89.6979 189.802 89.9977 189.602 90.1966C190.201 90.7908 190.695 91.0906 191.094 91.0906C191.488 91.0906 191.886 90.8903 192.285 90.4964ZM230.679 72.0383C230.679 71.8434 230.731 71.6445 230.831 71.4441C230.93 71.2452 230.878 70.9508 230.679 70.5515C230.679 70.3525 230.484 70.253 230.084 70.253H229.786C229.786 70.253 229.591 70.452 229.192 70.8513C228.599 71.4441 228.599 71.9429 229.192 72.3368C228.993 72.5371 229.092 72.6366 229.491 72.6366C229.885 72.6366 230.285 72.4376 230.679 72.0383ZM288.423 77.9925C287.236 78.1928 285.545 78.1928 283.365 77.9925C281.181 77.7936 278.503 77.893 275.326 78.2923C276.917 80.6718 277.31 83.9481 276.519 88.1129C276.318 88.3118 276.219 88.7111 276.219 89.304C274.632 96.0527 271.855 101.656 267.885 106.119C263.919 110.588 259.451 113.613 254.494 115.199C252.902 115.598 251.316 115.945 249.731 116.24C248.145 116.538 246.453 116.59 244.668 116.391C241.296 116.191 238.665 115.446 236.781 114.16C234.896 112.868 233.456 111.329 232.464 109.543C231.472 107.758 230.83 105.973 230.532 104.187C230.232 102.402 230.084 101.009 230.084 100.017V99.7228C230.084 91.783 231.723 84.9402 234.995 79.185C238.272 73.4297 241.296 69.066 244.075 66.0882C245.266 64.8958 246.553 63.7033 247.946 62.5176C249.332 61.3251 250.822 60.2322 252.409 59.24H252.709C253.301 58.8461 254.541 58.3003 256.426 57.6013C258.312 56.9089 260.444 56.4626 262.828 56.2623C265.206 56.2623 267.291 56.6615 269.076 57.4547C269.676 57.854 270.216 58.2479 270.715 58.6472C271.208 59.0411 271.756 59.4403 272.354 59.8383C273.94 61.4246 274.88 63.1105 275.178 64.8958C275.478 66.6811 275.426 68.3669 275.032 69.9586C277.211 69.5593 279.795 69.1654 282.767 68.7662C285.745 68.3669 289.122 67.973 292.892 67.5737C292.892 67.5737 292.987 67.6746 293.186 67.8735C293.186 68.6667 292.939 70.3055 292.445 72.7831C291.946 75.2675 290.707 77.0004 288.723 77.9925H288.423ZM268.184 91.3891C269.177 88.012 269.376 85.5344 268.778 83.9481C268.184 82.3563 267.39 81.3642 266.398 80.9703C265.206 80.372 263.72 80.2779 261.935 80.6718C261.935 80.8708 261.883 80.9703 261.783 80.9703C261.688 80.9703 261.635 80.8708 261.635 80.6718C261.241 80.4715 260.743 79.9311 260.15 79.0331C259.55 78.1404 259.156 77.0999 258.957 75.9088C258.758 75.5149 258.657 75.1156 258.657 74.7217C258.657 74.3224 258.858 74.1221 259.257 74.1221C259.451 74.1221 259.949 73.9232 260.743 73.5293C263.72 70.5515 265.999 66.8814 267.591 62.5176C265.012 63.5097 262.481 65.295 259.996 67.8735C257.519 70.452 255.186 73.829 253.002 77.9925C252.01 79.7778 250.97 82.0632 249.877 84.8407C248.786 87.6195 247.946 90.5959 247.346 93.7686C247.346 94.7608 247.252 95.4544 247.053 95.8537V99.7228C247.252 100.91 247.499 102.102 247.792 103.295C248.092 104.486 248.737 105.573 249.731 106.566L250.922 107.458C251.117 107.659 251.316 107.758 251.516 107.758C251.715 107.758 252.01 107.857 252.409 108.058H253.301C254.095 108.058 255.087 107.905 256.279 107.611C257.472 107.312 258.758 106.566 260.15 105.378C261.536 104.187 262.927 102.502 264.313 100.317C265.706 98.1324 266.992 95.16 268.184 91.3891ZM251.216 64.8958C251.816 64.8958 252.309 64.6968 252.709 64.3029C253.102 63.9036 253.301 63.4103 253.301 62.8107C253.103 62.8107 253.002 62.7112 253.002 62.5176C252.608 61.918 252.21 61.6249 251.816 61.6249C251.017 61.6249 250.423 61.8185 250.029 62.2178C250.029 62.4167 249.977 62.5176 249.877 62.5176C249.778 62.5176 249.731 62.6171 249.731 62.8107V63.1105L248.538 64.0031C248.339 64.0031 248.239 64.0555 248.239 64.1496C248.239 64.2505 248.145 64.3029 247.946 64.3029L247.346 65.1956C247.152 65.1956 246.853 65.3945 246.453 65.7884C246.26 65.9887 246.16 66.388 246.16 66.9809C245.561 67.5737 245.461 67.973 245.86 68.1733H245.561C245.561 68.1733 245.367 68.2674 244.968 68.4664C244.568 68.8656 244.374 69.1655 244.374 69.359C244.374 69.7583 244.668 70.0581 245.266 70.253H245.561C245.761 70.253 246.059 70.0581 246.453 69.6588C246.453 69.4599 246.506 69.312 246.607 69.2125C246.706 69.113 246.753 68.9665 246.753 68.7662C247.152 68.7662 247.546 68.4664 247.946 67.8735C248.145 67.8735 248.239 67.774 248.239 67.5737V67.2807H248.538C248.737 67.0804 248.938 66.9809 249.137 66.9809L249.731 66.388C249.731 66.388 249.83 66.2872 250.029 66.0882L251.216 64.8958ZM285.151 69.359C284.753 69.5594 284.505 69.8067 284.406 70.1052C284.306 70.405 284.059 70.7518 283.66 71.1457C283.859 71.9429 284.359 72.3368 285.151 72.3368H285.745C285.745 72.3368 285.944 72.2373 286.343 72.0383C286.538 72.0383 286.79 71.9913 287.084 71.8905C287.384 71.791 287.63 71.7439 287.83 71.7439H288.129C288.723 71.7439 289.122 71.6445 289.316 71.4441H290.508L290.806 71.1457C291.2 70.7518 291.301 70.253 291.101 69.6588V69.359C291.101 68.9665 290.907 68.7662 290.508 68.7662C290.308 68.7662 290.015 68.8657 289.615 69.066H289.316C289.316 69.066 289.216 68.9665 289.021 68.7662C288.822 68.7662 288.723 68.8132 288.723 68.9127C288.723 69.0135 288.622 69.066 288.423 69.066H287.236C286.837 69.066 286.437 69.2596 286.043 69.6588C286.043 69.6588 285.844 69.5594 285.451 69.359H285.151ZM243.481 73.5293C243.875 73.5293 244.175 73.3303 244.374 72.931C244.968 72.3368 245.067 71.8434 244.668 71.4441L243.775 70.5515H243.481C242.883 70.5515 242.389 70.9508 241.99 71.7439C241.99 72.1378 241.943 72.4376 241.843 72.6366C241.743 72.8355 241.891 73.0305 242.29 73.2295C242.29 73.4298 242.489 73.5293 242.883 73.5293H243.481ZM243.775 90.4964C243.775 89.8982 243.775 89.6038 243.775 89.6038C243.775 89.0055 243.381 88.7111 242.588 88.7111C242.189 88.7111 241.791 88.906 241.397 89.304C241.397 89.6979 241.296 89.9977 241.097 90.1966C241.69 90.7908 242.189 91.0906 242.588 91.0906C242.982 91.0906 243.381 90.8903 243.775 90.4964ZM282.174 72.0383C282.174 71.8434 282.227 71.6445 282.321 71.4441C282.42 71.2452 282.373 70.9508 282.174 70.5515C282.174 70.3525 281.974 70.253 281.58 70.253H281.282C281.282 70.253 281.081 70.452 280.687 70.8513C280.089 71.4441 280.089 71.9429 280.687 72.3368C280.488 72.5371 280.588 72.6366 280.982 72.6366C281.381 72.6366 281.775 72.4376 282.174 72.0383ZM313.131 78.8852H312.238C311.839 78.8852 311.492 78.9376 311.194 79.0331C310.899 79.1325 310.453 79.2845 309.853 79.4794C311.046 82.4572 312.285 85.0881 313.577 87.3721C314.864 89.6508 316.009 91.6835 317.001 93.4688C318.787 96.4466 320.173 98.8785 321.165 100.763C322.158 102.648 322.951 104.04 323.55 104.932C324.143 105.825 324.637 106.419 325.035 106.719C325.434 107.012 326.029 107.165 326.822 107.165C327.22 107.165 327.514 107.113 327.715 107.012C327.914 106.912 328.113 106.865 328.307 106.865C329.5 106.273 330.792 105.028 332.178 103.147C333.569 101.262 334.908 99.2765 336.2 97.1927C337.487 95.1076 338.627 93.122 339.619 91.2372C340.611 89.3524 341.31 88.1129 341.704 87.5187C341.903 87.5187 342.051 87.4662 342.15 87.3721C342.25 87.2727 342.497 87.2202 342.896 87.2202H347.953C348.552 87.2202 348.652 87.4192 348.252 87.8185C347.66 88.8052 346.814 90.4964 345.721 92.8759C344.629 95.2595 343.29 97.885 341.704 100.763C340.118 103.64 338.28 106.32 336.2 108.797C334.115 111.282 331.883 113.014 329.5 114.007C328.307 114.406 327.415 114.606 326.822 114.606H326.228C322.258 115 318.886 114.207 316.109 112.221C313.33 110.237 311.046 107.905 309.261 105.227C307.475 102.549 306.037 99.7712 304.944 96.8929C303.852 94.0146 302.911 91.8825 302.119 90.4964C300.333 93.8681 298.842 97.0448 297.649 100.017C296.462 102.995 295.47 105.573 294.677 107.758C294.478 109.149 294.331 110.488 294.231 111.775C294.131 113.067 294.079 114.207 294.079 115.199V115.499C294.079 115.698 293.979 115.793 293.784 115.793C292.987 116.191 291.354 116.885 288.869 117.877C286.39 118.871 283.759 119.169 280.982 118.77C280.588 118.571 280.388 118.276 280.388 117.877C280.588 116.092 281.034 111.628 281.728 104.486C282.42 97.3392 283.412 88.8577 284.704 79.0331C285.991 69.2125 287.63 58.6942 289.615 47.4823C291.6 36.2703 293.88 25.705 296.462 15.7849C296.462 15.192 296.657 15.0912 297.056 15.4851C297.85 15.6854 299.041 15.9839 300.627 16.3778C302.219 16.777 303.852 17.4237 305.537 18.3164C307.228 19.209 308.762 20.2482 310.153 21.4407C311.545 22.6331 312.437 24.1186 312.831 25.9039V26.2037C312.632 26.5976 312.533 26.7966 312.533 26.7966C312.338 27.79 311.692 30.2677 310.599 34.2376C309.508 38.2089 308.268 43.019 306.877 48.6747C305.49 54.3304 304.004 60.4325 302.412 66.9809C300.827 73.5293 299.435 79.9781 298.249 86.3276C302.219 79.185 306.583 72.2373 311.346 65.49C316.109 58.7467 321.065 52.7911 326.228 47.6342L326.822 47.3357C327.22 47.735 327.961 48.3279 329.054 49.121C330.145 49.9142 331.238 50.8068 332.33 51.799C333.417 52.7911 334.315 53.8841 335.008 55.0752C335.701 56.2623 335.848 57.4547 335.454 58.6472C335.654 58.8462 335.654 58.9456 335.454 58.9456C335.056 59.3395 333.669 60.6315 331.285 62.8107C328.906 64.9953 326.327 67.2807 323.55 69.6588C320.373 72.4376 316.902 75.5149 313.131 78.8852ZM296.757 28.5819V29.1761C296.757 29.5753 296.757 29.7743 296.757 29.7743L297.649 30.3685H297.949C298.542 30.3685 298.842 30.0741 298.842 29.4759V29.1761C299.435 29.1761 299.435 28.8817 298.842 28.2834C299.241 28.2834 299.435 27.8895 299.435 27.0964C299.635 26.8974 299.734 26.7966 299.734 26.7966V26.4981C299.734 26.3032 299.834 26.2037 300.034 26.2037V25.9039C300.233 25.9039 300.333 25.8044 300.333 25.6055V25.311C300.528 25.1107 300.627 24.8123 300.627 24.4184C300.827 24.2181 300.927 24.0191 300.927 23.8188V23.2259H301.225L302.119 22.0335C302.313 21.6396 302.266 21.2417 301.966 20.8424C301.672 20.4485 301.42 20.2482 301.225 20.2482C300.233 19.6553 299.535 19.7548 299.142 20.548C298.742 20.9419 298.542 21.2417 298.542 21.4407V22.6331C298.542 22.8267 298.495 22.9261 298.395 22.9261C298.296 22.9261 298.249 23.027 298.249 23.2259C298.049 23.6198 297.949 23.9196 297.949 24.1186C297.75 24.5125 297.649 24.7128 297.649 24.7128L297.056 25.6055C297.056 26.2037 297.156 26.5976 297.356 26.7966V27.3908C297.356 27.7901 297.456 27.989 297.649 27.989C297.456 27.989 297.156 28.188 296.757 28.5819ZM323.25 54.1825C323.051 54.3775 322.951 54.5765 322.951 54.7768L323.844 55.6694C323.844 55.6694 324.143 55.6694 324.737 55.6694C324.936 55.6694 325.035 55.5699 325.035 55.3696C325.035 54.9757 324.936 54.6773 324.737 54.477C324.936 54.6773 325.236 54.7768 325.629 54.7768L326.228 54.477C326.428 54.477 326.622 54.2834 326.822 53.8841C327.021 53.6838 327.22 53.5843 327.415 53.5843L328.013 53.2899L328.307 52.9914C328.906 52.9914 329.205 52.8906 329.205 52.6917C329.399 52.4927 329.3 51.998 328.906 51.2061C328.506 50.8069 328.013 50.6066 327.415 50.6066C327.021 50.6066 326.822 50.706 326.822 50.9063L326.522 51.5046V51.799L326.228 52.0988H325.928C325.729 52.2977 325.53 52.2977 325.335 52.0988V52.3972L325.035 52.6917C324.637 52.6917 324.442 52.6917 324.442 52.6917V53.5843C324.043 53.9836 323.944 54.1825 324.143 54.1825H323.25ZM298.542 58.3474C298.542 57.5542 298.148 56.761 297.356 55.9692C296.957 55.9692 296.757 55.9692 296.757 55.9692C296.363 55.9692 296.164 56.0687 296.164 56.2623V56.8619C295.963 57.2558 295.817 57.6537 295.717 58.053C295.618 58.4469 295.963 58.8461 296.757 59.24H297.056C297.649 59.24 298.148 58.9456 298.542 58.3474ZM295.57 32.7521C295.172 33.5453 295.47 33.9392 296.462 33.9392H297.356C297.356 33.7442 297.456 33.6447 297.649 33.6447C297.649 33.6447 297.85 33.4458 298.249 33.0465C298.249 32.2533 298.148 31.7599 297.949 31.5596C297.55 31.1603 297.056 30.9668 296.462 30.9668C296.064 30.9668 295.764 31.2612 295.57 31.8594V32.7521ZM290.806 100.017C290.806 99.224 290.707 98.7306 290.508 98.5317C290.308 98.5317 290.208 98.4846 290.208 98.3838C290.208 98.2843 290.109 98.2319 289.914 98.2319C289.316 98.2319 288.822 98.6311 288.423 99.4243C288.423 100.017 288.522 100.416 288.723 100.615C288.922 100.816 289.122 100.91 289.316 100.91C289.715 100.91 290.208 100.615 290.806 100.017ZM322.059 108.058C322.059 107.265 321.958 106.766 321.764 106.566C321.564 106.566 321.465 106.519 321.465 106.419C321.465 106.32 321.365 106.272 321.165 106.272C320.572 106.272 320.073 106.665 319.679 107.458C319.679 108.058 319.779 108.452 319.974 108.651C320.173 108.85 320.373 108.95 320.572 108.95C320.966 108.95 321.465 108.651 322.059 108.058ZM297.949 45.8488C297.949 46.0438 298.249 46.1433 298.842 46.1433C299.241 46.1433 299.635 45.9443 300.034 45.5504C300.233 45.1511 300.333 44.7572 300.333 44.358C299.935 43.9641 299.635 43.7637 299.435 43.7637C298.643 43.7637 298.148 44.0582 297.949 44.6564C297.75 44.8567 297.75 45.2506 297.949 45.8488ZM321.165 55.6694C320.966 56.2623 321.165 56.761 321.764 57.1549C321.958 57.3552 322.158 57.4547 322.357 57.4547H322.657L322.951 57.7545C323.349 57.3552 323.55 57.0608 323.55 56.8619V56.5621C323.15 55.9692 322.851 55.6694 322.657 55.6694C322.258 55.4691 321.958 55.3696 321.764 55.3696C321.564 55.5699 321.365 55.6694 321.165 55.6694ZM315.809 71.7439C316.403 71.3447 316.503 70.651 316.109 69.6588C315.908 69.4599 315.709 69.359 315.509 69.359C315.31 69.5594 315.216 69.6588 315.216 69.6588L314.916 69.9586C314.717 69.9586 314.517 70.0581 314.323 70.253C314.123 70.452 314.223 70.7518 314.616 71.1457C314.616 71.5436 314.616 71.7439 314.616 71.7439C314.616 71.7439 314.916 71.7439 315.509 71.7439H315.809ZM292.593 98.5317C292.987 98.5317 293.186 98.2319 293.186 97.639C293.186 96.8458 292.693 96.4466 291.7 96.4466C291.301 96.4466 291.101 96.7464 291.101 97.3392C291.101 98.1324 291.6 98.5317 292.593 98.5317ZM300.333 56.8619C300.726 56.8619 300.927 56.5621 300.927 55.9692C300.927 55.176 300.528 54.7768 299.734 54.7768H299.435C299.041 54.7768 298.842 54.9757 298.842 55.3696C298.842 56.3631 299.34 56.8619 300.333 56.8619ZM301.52 54.477C301.919 54.477 302.119 54.1825 302.119 53.5843C302.119 52.7911 301.619 52.3972 300.627 52.3972C300.233 52.3972 300.034 52.5922 300.034 52.9914C300.034 53.9836 300.428 54.477 301.225 54.477H301.52ZM319.679 64.3029V64.5973C319.679 64.7963 319.779 64.8958 319.974 64.8958C320.173 65.0961 320.572 65.1956 321.165 65.1956C321.958 65.1956 322.059 64.8958 321.465 64.3029C321.665 64.3029 321.712 64.2505 321.612 64.1496C321.512 64.0555 321.365 64.0031 321.165 64.0031C320.966 64.0031 320.819 63.9561 320.718 63.8566C320.619 63.7571 320.373 63.7033 319.974 63.7033C319.974 63.9036 319.927 64.0031 319.826 64.0031C319.726 64.0031 319.679 64.1026 319.679 64.3029ZM319.974 70.253C320.373 70.0581 320.473 69.8591 320.272 69.6588C320.073 69.4599 319.779 69.359 319.38 69.359C318.986 69.1655 318.787 69.066 318.787 69.066C318.588 69.4599 318.886 70.0581 319.679 70.8513C319.878 70.452 319.974 70.253 319.974 70.253ZM318.188 71.4441C318.588 71.4441 318.787 71.4441 318.787 71.4441C319.181 71.0503 318.986 70.651 318.188 70.253C318.188 69.4599 317.994 69.4599 317.594 70.253C317.395 70.651 317.348 70.9508 317.448 71.1457C317.542 71.3447 317.694 71.3447 317.894 71.1457L318.188 71.4441ZM351.23 123.833C350.636 124.032 350.038 124.127 349.445 124.127H348.552C347.159 124.127 345.974 123.932 344.98 123.533C343.988 123.139 342.996 122.741 342.002 122.342C340.018 120.755 338.878 118.723 338.58 116.24C338.28 113.761 338.133 112.028 338.133 111.034C338.531 106.273 339.225 99.9701 340.217 92.1298C341.211 84.2949 342.396 75.6143 343.789 66.0882C344.98 57.7545 346.514 49.5674 348.399 41.5321C350.285 33.4928 352.322 25.6055 354.501 17.87C354.501 17.87 354.701 17.7692 355.101 17.5702C355.693 17.7692 356.833 18.0636 358.525 18.4629C360.209 18.8621 361.895 19.5034 363.581 20.3961C365.267 21.2887 366.806 22.3803 368.197 23.6723C369.583 24.9642 370.376 26.4981 370.575 28.2834V29.1761C370.376 29.9746 369.883 31.6605 369.09 34.2376C368.297 36.8161 367.305 40.0412 366.112 43.9116C364.92 47.782 363.68 52.0988 362.39 56.8619C361.103 61.6249 359.864 66.5816 358.671 71.7439C357.085 78.2923 355.646 84.7412 354.354 91.0906C353.062 97.4387 352.222 103.094 351.823 108.058C351.624 109.05 351.476 109.89 351.377 110.588C351.277 111.282 351.23 112.028 351.23 112.821V114.899C351.823 116.691 353.214 116.391 355.394 114.007C357.578 111.628 359.864 108.651 362.242 105.08C364.621 101.509 366.858 97.9845 368.938 94.5134C371.022 91.0422 372.362 88.9061 372.96 88.1129C373.154 87.9126 373.553 87.8185 374.147 87.8185H379.209C379.603 87.8185 379.702 88.0121 379.509 88.4113C379.109 89.2045 378.217 90.8903 376.825 93.4688C375.439 96.0527 373.801 98.978 371.914 102.249C370.03 105.526 367.997 108.703 365.812 111.775C363.633 114.852 361.549 117.284 359.564 119.069V119.369C355.993 122.147 353.214 123.634 351.23 123.833ZM353.315 30.667C353.315 31.4602 353.315 31.8594 353.315 31.8594C353.709 32.2533 354.008 32.4523 354.208 32.4523H354.501C354.9 32.4523 355.101 32.3528 355.101 32.1539C355.101 31.9535 355.2 31.7599 355.394 31.5596C355.394 30.9668 355.294 30.5675 355.101 30.3685C355.294 30.3685 355.594 30.0741 355.993 29.4759C356.192 29.2756 356.286 29.082 356.286 28.8817V28.2834C356.487 28.2834 356.586 28.188 356.586 27.989L356.886 27.6892V27.3908C356.886 27.3908 356.985 27.1958 357.18 26.7966C357.379 26.3973 357.479 26.0034 357.479 25.6055V25.311C358.078 24.7128 358.371 24.3189 358.371 24.1186C358.572 23.3254 358.272 22.7272 357.479 22.3333C356.686 21.934 355.993 22.0335 355.394 22.6331C355.2 22.8267 355.101 23.226 355.101 23.8188V24.7128H354.801V25.311L354.501 25.6055C354.501 25.8044 354.401 26.0034 354.208 26.2037V27.0964C353.809 27.0964 353.608 27.2913 353.608 27.6892C353.608 28.2834 353.709 28.6827 353.908 28.8817V29.1761C353.908 29.7743 353.908 30.0741 353.908 30.0741L353.315 30.667ZM355.394 60.7323C355.793 59.9337 355.394 59.0411 354.208 58.053H353.608C353.415 58.053 353.315 58.1484 353.315 58.3474C353.315 58.5477 353.214 58.7467 353.015 58.9456C352.815 59.3395 352.716 59.7388 352.716 60.1327C352.716 60.532 353.015 60.9259 353.608 61.3251C353.608 61.5241 353.709 61.6249 353.908 61.6249C354.9 61.4246 355.394 61.1248 355.394 60.7323ZM351.823 34.8318C351.823 35.6304 352.123 36.0243 352.716 36.0243H353.908V35.7245C354.307 35.7245 354.501 35.6304 354.501 35.43C354.9 34.6369 354.9 34.0386 354.501 33.6447C354.307 33.4458 354.107 33.3449 353.908 33.3449C353.709 33.3449 353.415 33.2455 353.015 33.0465C352.421 33.0465 352.123 33.345 352.123 33.9392C351.922 34.1381 351.823 34.3384 351.823 34.5374V34.8318ZM346.467 107.758C346.467 107.165 346.368 106.766 346.167 106.566C345.974 106.372 345.773 106.272 345.574 106.272C344.781 106.272 344.282 106.566 344.088 107.165C344.088 107.957 344.183 108.452 344.382 108.651C344.581 108.651 344.682 108.703 344.682 108.797C344.682 108.898 344.781 108.95 344.98 108.95C345.574 108.95 346.068 108.551 346.467 107.758ZM354.801 47.9286C355.2 48.3278 355.494 48.5268 355.693 48.5268C356.286 48.5268 356.786 48.2284 357.18 47.6342C357.578 47.2349 357.578 46.841 357.18 46.4431C357.18 46.2428 356.886 46.1433 356.286 46.1433C355.693 46.1433 355.294 46.3422 355.101 46.7415C354.9 46.9364 354.801 47.3357 354.801 47.9286ZM357.479 58.9456C357.878 58.9456 358.078 58.7466 358.078 58.3474C358.078 57.3552 357.578 56.8619 356.586 56.8619C356.192 56.8619 355.993 57.1549 355.993 57.7545C355.993 58.5477 356.387 58.9456 357.18 58.9456H357.479ZM347.659 100.615C347.659 101.609 348.153 102.102 349.145 102.102C349.544 102.102 349.738 101.808 349.738 101.21C349.738 100.416 349.344 100.017 348.552 100.017H348.252C347.853 100.017 347.659 100.218 347.659 100.615ZM358.971 55.9692C358.971 54.9757 358.471 54.477 357.479 54.477C357.085 54.477 356.886 54.7768 356.886 55.3696C356.886 56.1682 357.379 56.5621 358.371 56.5621C358.771 56.5621 358.971 56.3631 358.971 55.9692Z" fill="#0F0F0F"/>
<path fill-rule="evenodd" clip-rule="evenodd" d="M424.451 114.902C422.272 115.102 420.187 114.902 418.201 114.309C417.608 117.086 416.909 119.271 416.116 120.857C418.895 121.058 421.725 121.304 424.603 121.603C427.476 121.898 430.306 122.344 433.083 122.942C433.283 122.942 433.482 123.042 433.677 123.237C433.677 124.229 432.984 125.92 431.598 128.298C430.206 130.678 428.52 132.369 426.535 133.361H425.942C424.95 133.361 423.311 133.014 421.027 132.317C418.747 131.623 415.917 130.877 412.545 130.084C409.567 137.031 406.244 142.981 402.573 147.945C398.903 152.907 394.884 155.286 390.521 155.086C385.758 155.086 382.134 153.994 379.655 151.815C377.178 149.631 375.387 147.099 374.3 144.221C373.207 141.348 372.608 138.419 372.509 135.441C372.415 132.468 372.462 130.084 372.661 128.298C372.661 127.505 373.154 126.713 374.148 125.92L376.231 124.728H376.531C378.118 124.129 381.142 123.436 385.606 122.643C390.074 121.849 395.379 121.257 401.534 120.857C402.725 115.7 403.713 110.738 404.511 105.975C405.303 101.212 405.897 97.4411 406.297 94.6637C401.733 101.212 397.616 105.928 393.945 108.8C390.269 111.678 387.743 113.516 386.352 114.309C385.958 114.509 385.358 114.609 384.566 114.609C381.788 113.815 379.157 112.476 376.678 110.59C374.2 108.706 372.561 107.367 371.768 106.568C371.369 105.775 371.17 105.281 371.17 105.082C371.569 99.9255 372.068 94.7161 372.661 89.4543C373.255 84.1978 374.047 78.8876 375.04 73.5317C375.439 70.7542 375.933 68.0749 376.531 65.4924C377.124 62.9139 377.718 60.2346 378.316 57.4571C378.71 57.0632 379.01 56.8643 379.209 56.8643C379.209 57.0633 379.309 57.1573 379.509 57.1573C382.286 57.7569 385.112 58.6967 387.99 59.9886C390.867 61.2805 392.801 63.3118 393.793 66.0906C393.992 66.2896 394.093 66.6835 394.093 67.2831V68.1757C394.093 68.3693 394.04 68.5212 393.945 68.6221C393.845 68.7215 393.793 68.9689 393.793 69.3615C393.793 69.5618 393.592 70.2555 393.2 71.4466C392.801 72.639 392.306 74.3248 391.708 76.5094C390.322 81.2725 389.082 86.2816 387.99 91.5394C386.897 96.7958 385.958 102.005 385.159 107.168C385.159 107.367 385.259 107.461 385.459 107.461C388.437 106.075 391.261 103.696 393.945 100.319C396.623 96.9478 399.149 93.3771 401.534 89.6062C403.912 85.8353 405.997 82.1127 407.782 78.4413C409.567 74.7712 410.959 71.7464 411.952 69.3615C412.346 67.5762 412.845 65.6914 413.438 63.7057C414.032 61.7268 414.63 59.9361 415.223 58.3498C415.223 57.9559 415.523 57.7569 416.116 57.7569L418.795 58.6496C420.98 59.4428 423.41 60.4349 426.088 61.6273C428.768 62.8131 430.605 64.2058 431.598 65.7908C431.598 65.9911 431.645 66.1901 431.744 66.3904C431.845 66.584 431.792 66.8838 431.598 67.2831C431.198 67.876 430.652 69.3144 429.959 71.5944C429.266 73.8785 428.52 76.4099 427.727 79.1874C427.328 80.5734 426.981 81.9124 426.683 83.2043C426.388 84.4963 426.041 85.7358 425.642 86.9228V87.8209L424.749 91.9857C424.35 94.7632 424.005 96.9948 423.705 98.6806C423.41 100.372 423.264 101.411 423.264 101.81V105.675C423.264 107.86 424.204 108.306 426.088 107.014C427.974 105.728 430.107 103.791 432.49 101.212C434.87 98.6336 437.101 95.9556 439.186 93.1768C441.27 90.3994 442.609 88.6141 443.203 87.8209C443.203 87.4216 443.502 87.3221 444.096 87.5211H449.159C449.551 87.5211 449.652 87.7214 449.452 88.1153C448.859 89.1074 447.719 91.0447 446.033 93.9176C444.342 96.7958 442.311 99.7736 439.931 102.851C437.548 105.928 434.969 108.653 432.19 111.037C429.413 113.416 426.834 114.708 424.451 114.902ZM388.735 148.837C390.914 148.637 392.9 146.606 394.685 142.735C396.471 138.865 398.062 134.353 399.448 129.191C393.892 129.191 388.336 129.885 382.781 131.276C382.581 133.262 382.434 135.293 382.333 137.378C382.234 139.463 382.382 141.396 382.781 143.182C383.179 144.967 383.82 146.405 384.713 147.498C385.606 148.59 386.95 149.036 388.735 148.837ZM422.964 77.1023C422.964 77.6965 423.063 77.9949 423.264 77.9949C423.264 78.1953 423.457 78.2947 423.857 78.2947H424.749C425.344 78.2947 425.642 77.6965 425.642 76.5094V76.2096C425.642 76.0107 425.743 75.9112 425.942 75.9112C425.942 75.7109 426.041 75.4165 426.236 75.0185C426.236 74.8182 426.289 74.6717 426.388 74.5709C426.488 74.4714 426.535 74.3248 426.535 74.1245C426.535 73.7306 426.635 73.3327 426.834 72.9334C426.834 72.5395 426.882 72.2922 426.981 72.1927C427.082 72.0932 427.129 71.8458 427.129 71.4466V70.5539L428.022 69.3615C428.421 68.9689 428.421 68.4688 428.022 67.8759C428.022 67.677 427.974 67.5761 427.874 67.5761C427.774 67.5761 427.727 67.4767 427.727 67.2831V66.9833C427.328 66.584 426.934 66.584 426.535 66.9833C426.137 66.9833 425.942 67.0828 425.942 67.2831C425.543 67.677 425.344 67.9754 425.344 68.1757C425.344 68.3693 425.243 68.5696 425.049 68.7686V69.0684C425.049 69.262 424.997 69.3615 424.897 69.3615C424.796 69.3615 424.749 69.4623 424.749 69.6613L424.451 70.5539C424.451 70.7542 424.403 70.9007 424.303 71.0002C424.204 71.0997 424.156 71.2476 424.156 71.4466C424.156 71.8458 424.104 72.0932 424.005 72.1927C423.904 72.2922 423.857 72.44 423.857 72.639C423.264 73.6311 423.164 74.4243 423.558 75.0185C423.558 75.2175 423.51 75.4165 423.41 75.6168C423.311 75.8104 423.264 76.0107 423.264 76.2096C423.063 76.4099 422.964 76.703 422.964 77.1023ZM380.402 60.4349C380.002 61.0278 380.102 61.6273 380.696 62.2202C380.696 62.6195 381.095 62.8131 381.887 62.8131H383.08L383.374 63.1129C383.573 63.1129 383.674 63.1599 383.674 63.2594C383.674 63.3602 383.773 63.4127 383.972 63.4127H384.566C384.765 63.8066 385.159 64.0055 385.757 64.0055H386.352C386.352 64.0055 386.551 64.105 386.95 64.3053C386.95 64.6992 387.244 64.8982 387.843 64.8982H388.137L388.735 64.3053C389.129 63.906 389.229 63.6587 389.03 63.5592C388.831 63.4597 388.636 63.3118 388.437 63.1129C388.437 62.9139 388.236 62.8131 387.843 62.8131L386.95 61.9204H386.65L386.352 61.6273H386.052C386.052 61.427 385.958 61.3276 385.757 61.3276L385.459 61.0278H385.159C385.159 61.0278 384.966 60.9283 384.566 60.7347C384.173 60.5344 383.773 60.4349 383.374 60.4349H383.08C383.08 59.8407 382.68 59.5422 381.887 59.5422C381.489 59.3419 381.095 59.4428 380.696 59.8407C380.696 60.0356 380.649 60.1351 380.548 60.1351C380.449 60.1351 380.402 60.2346 380.402 60.4349ZM422.964 124.129C422.964 124.529 423.063 124.827 423.264 125.027C423.457 125.421 423.956 125.62 424.749 125.62H425.049C425.443 125.62 425.743 125.667 425.942 125.768C426.137 125.868 426.336 125.92 426.535 125.92H426.834C427.029 125.92 427.181 125.967 427.281 126.067C427.38 126.166 427.628 126.214 428.022 126.214C428.22 126.214 428.321 126.166 428.321 126.067C428.321 125.967 428.421 125.92 428.62 125.92C428.82 125.92 428.914 126.014 428.914 126.214H429.214C429.214 126.413 429.313 126.513 429.512 126.513C429.713 126.513 429.812 126.413 429.812 126.214C430.006 126.214 430.107 126.114 430.107 125.92C430.306 125.92 430.405 125.821 430.405 125.62C430.605 125.62 430.705 125.521 430.705 125.321C430.898 125.122 430.898 124.827 430.705 124.428C430.705 124.034 430.506 123.835 430.107 123.835H429.512L429.214 123.535C429.214 123.535 429.014 123.436 428.62 123.237H427.727C427.727 123.237 427.528 123.141 427.129 122.942H426.535C426.137 122.942 425.842 123.042 425.642 123.237L424.749 122.643C424.156 122.643 423.757 122.843 423.558 123.237C423.358 123.636 423.164 123.934 422.964 124.129ZM382.187 87.8209C382.187 87.4216 382.134 87.0748 382.035 86.7763C381.935 86.4765 381.489 86.0302 380.696 85.4373H380.102C379.903 85.4373 379.803 85.6363 379.803 86.0302L379.509 86.33C379.309 86.7279 379.209 87.1218 379.209 87.5211C379.209 87.915 379.603 88.3143 380.402 88.7135H380.696C381.095 88.7135 381.589 88.4138 382.187 87.8209ZM416.715 87.8209C417.308 87.2227 416.909 86.4295 415.523 85.4373C415.523 85.038 415.324 85.038 414.925 85.4373C414.73 85.4373 414.63 85.5368 414.63 85.7358C414.63 85.9361 414.531 86.1297 414.331 86.33C413.937 87.3221 414.132 88.1153 414.925 88.7135H415.223C416.217 88.7135 416.715 88.4138 416.715 87.8209ZM416.416 75.317C416.416 75.5173 416.615 75.6168 417.009 75.6168C417.608 75.6168 418.101 75.4165 418.501 75.0185C418.694 74.4243 418.694 74.0251 418.501 73.8315C418.501 73.4322 418.201 73.2319 417.608 73.2319C417.009 73.2319 416.615 73.5317 416.416 74.1245C416.217 74.3248 416.217 74.7241 416.416 75.317ZM378.018 140.204C378.217 140.004 378.118 139.61 377.718 139.011C377.718 138.818 377.523 138.717 377.124 138.717C376.731 138.717 376.332 139.111 375.933 139.91C375.539 140.303 375.539 140.703 375.933 141.097C376.132 141.296 376.332 141.396 376.531 141.396C377.124 141.396 377.624 140.997 378.018 140.204ZM384.566 83.6507C384.966 83.6507 385.159 83.3522 385.159 82.758C385.159 81.9648 384.666 81.5669 383.674 81.5669C383.274 81.5669 383.08 81.8654 383.08 82.4596C383.08 83.2527 383.573 83.6507 384.566 83.6507ZM406.59 138.717C406.79 138.717 406.89 138.518 406.89 138.119H406.59C406.59 137.326 406.196 136.932 405.404 136.932H404.804C404.804 137.326 404.804 137.526 404.804 137.526V137.824C404.804 138.618 405.303 139.011 406.297 139.011C406.297 139.011 406.396 138.917 406.59 138.717ZM383.674 86.0302C384.466 86.0302 384.666 85.8352 384.267 85.4373C384.267 84.4438 383.873 83.9505 383.08 83.9505H382.781C382.382 84.3444 382.187 84.6441 382.187 84.8431C382.187 85.6363 382.68 86.0302 383.674 86.0302ZM418.795 81.8654C418.401 81.8654 418.201 82.0657 418.201 82.4596C418.201 83.4517 418.694 83.9505 419.688 83.9505C420.087 83.9505 420.286 83.6507 420.286 83.0578C420.286 82.2593 419.887 81.8654 419.094 81.8654H418.795ZM417.308 84.8431C417.308 85.8353 417.702 86.33 418.501 86.33H418.795C419.193 86.33 419.393 86.0302 419.393 85.4373C419.393 84.6441 418.895 84.2449 417.902 84.2449C417.509 84.2449 417.308 84.4438 417.308 84.8431ZM401.534 142.882C401.733 142.882 401.827 142.687 401.827 142.289C401.827 141.695 401.333 141.396 400.341 141.396H400.041C399.647 141.396 399.448 141.595 399.448 141.989C399.848 142.782 400.341 143.182 400.934 143.182C401.134 143.182 401.333 143.081 401.534 142.882ZM379.509 68.1757C379.309 68.5696 379.209 69.0684 379.209 69.6613C379.209 69.8616 379.409 69.961 379.803 69.961H380.402L380.696 69.6613C380.895 69.262 380.994 68.7686 380.994 68.1757C380.795 67.9754 380.597 67.8759 380.402 67.8759C380.203 67.8759 380.002 67.9754 379.803 68.1757H379.509ZM493.805 102.105C493.606 102.898 493.507 104.19 493.507 105.975C493.507 108.16 494.452 108.606 496.337 107.314C498.223 106.022 500.355 104.09 502.733 101.512C505.118 98.9334 507.35 96.2487 509.429 93.4712C511.513 90.6938 512.852 88.9085 513.452 88.1153C513.846 87.7214 514.245 87.5211 514.639 87.5211H519.7L520 87.8209V88.1153C519.402 89.1074 518.215 91.0447 516.424 93.9176C514.639 96.7958 512.559 99.826 510.174 102.997C507.796 106.174 505.264 108.953 502.586 111.331C499.909 113.716 497.276 115.003 494.699 115.201C490.728 115.402 487.604 114.855 485.32 113.563C483.041 112.276 481.303 110.639 480.11 108.653C478.923 106.667 478.231 104.537 478.03 102.251C477.831 99.9726 477.831 97.9399 478.03 96.1546C478.424 91.1926 479.071 86.4765 479.964 82.0132C480.856 77.5486 481.502 74.2254 481.901 72.0408C481.901 71.2476 481.801 70.8537 481.601 70.8537C481.601 70.8537 481.303 70.8537 480.708 70.8537C476.939 73.8315 473.614 77.1023 470.736 80.6743C467.859 84.2449 465.427 87.8209 463.443 91.3915C461.457 94.9621 459.824 98.3862 458.532 101.658C457.245 104.935 456.3 107.76 455.707 110.144C455.707 110.538 455.655 110.885 455.554 111.185C455.455 111.484 455.407 111.83 455.407 112.224V116.094C455.407 116.493 455.308 116.694 455.108 116.694C451.143 119.665 446.974 121.058 442.609 120.857C442.211 120.458 442.011 120.165 442.011 119.965V118.772C441.617 110.838 441.765 103.297 442.457 96.1546C443.156 89.008 444.196 81.5669 445.587 73.8315C445.981 71.0527 446.48 68.3693 447.074 65.7908C447.667 63.2123 448.265 60.5344 448.859 57.7569C448.859 57.3577 449.058 57.1573 449.452 57.1573C449.652 57.1573 449.851 57.2582 450.052 57.4571C452.63 58.0554 455.36 58.9964 458.233 60.287C461.11 61.5749 463.148 63.6116 464.335 66.3904C464.335 66.584 464.388 66.7843 464.487 66.9833C464.587 67.1823 464.634 67.3772 464.634 67.5761V68.4688C464.435 68.6691 464.335 69.0684 464.335 69.6613C463.942 70.0605 463.248 72.3392 462.256 76.5094C461.063 80.4739 460.171 84.1454 459.572 87.5211C462.355 81.9648 465.133 77.3496 467.911 73.6782C470.689 70.0081 473.215 67.0828 475.499 64.8982C477.779 62.7136 479.763 61.1272 481.449 60.1351C483.14 59.143 484.28 58.5501 484.873 58.3498C485.272 58.1508 485.766 58.0554 486.364 58.0554L489.342 58.9481C491.521 59.5423 493.953 60.482 496.631 61.7739C499.309 63.0658 501.147 64.5043 502.14 66.0906C502.14 66.4845 502.039 66.8838 501.84 67.2831C501.641 68.0749 501.195 69.6142 500.501 71.8929C499.808 74.1783 499.063 76.703 498.27 79.4818C497.477 81.8654 496.83 84.1454 496.337 86.33C495.838 88.5146 495.392 90.4989 494.992 92.2842C494.598 95.063 494.3 97.2946 494.1 98.9804C493.906 100.666 493.805 101.711 493.805 102.105ZM449.159 70.8537C448.76 71.2476 448.76 71.6469 449.159 72.0408C449.159 72.44 449.452 72.639 450.052 72.639C450.644 72.639 450.944 72.3392 450.944 71.7464V71.4466C451.143 70.8537 451.044 70.4544 450.644 70.2555C451.237 70.2555 451.537 69.7607 451.537 68.7686C451.736 68.7686 451.837 68.6691 451.837 68.4688V67.5761C451.837 67.5761 451.936 67.4767 452.13 67.2831V66.9833C452.13 66.7843 452.231 66.584 452.43 66.3904V65.7908C452.63 65.3969 452.73 64.8982 452.73 64.3053V64.0055L453.028 63.7057C453.422 63.7057 453.622 63.3118 453.622 62.52C453.821 61.7268 453.523 61.1272 452.73 60.7347C451.736 60.5344 451.044 60.6339 450.644 61.0278C450.245 61.8209 450.052 62.3197 450.052 62.52C450.052 62.52 450.151 62.7136 450.345 63.1129V63.7057L450.052 64.0055V64.5997L449.752 64.8982V65.4924C449.551 65.6914 449.452 65.8903 449.452 66.0906V66.3904C448.659 67.1822 448.659 67.9754 449.452 68.7686V69.0684C449.452 69.8616 449.551 70.2555 449.752 70.2555C449.353 70.2555 449.159 70.4544 449.159 70.8537ZM492.912 86.0302C493.507 86.0302 493.805 85.7358 493.805 85.1375V84.8431C494.199 84.8431 494.199 84.6442 493.805 84.2449C494.005 84.0499 494.1 83.7515 494.1 83.3522C494.3 83.3522 494.399 83.2527 494.399 83.0578V82.4596L494.699 82.1652V81.5669C494.898 81.5669 494.992 81.3666 494.992 80.9727C495.193 80.3745 495.193 79.9806 494.992 79.7803H495.292C495.691 79.3877 495.885 78.9884 495.885 78.5891C496.284 77.5957 495.986 77.1023 494.992 77.1023C494.199 76.3091 493.606 76.41 493.207 77.4021C492.813 77.796 492.614 78.1953 492.614 78.5891L492.912 78.8876V79.1874C492.912 79.1874 492.813 79.2869 492.614 79.4818V80.0801C492.414 80.2804 492.314 80.4739 492.314 80.6743C492.314 81.0722 492.215 81.2725 492.02 81.2725C492.02 81.4661 491.967 81.6193 491.868 81.7188C491.768 81.8129 491.721 81.9649 491.721 82.1652C491.721 82.5591 491.768 82.8051 491.868 82.9059C491.967 83.0054 492.02 83.1519 492.02 83.3522V84.2449C491.621 84.6442 491.621 85.038 492.02 85.4373C492.215 85.6363 492.515 85.7358 492.912 85.7358V86.0302ZM447.667 75.6168C447.468 76.0107 447.667 76.4099 448.265 76.8038H449.752C449.752 77.0028 449.951 76.703 450.345 75.9112C450.345 75.7109 450.397 75.4165 450.498 75.0185C450.597 74.6246 450.445 74.3248 450.052 74.1245C449.851 73.9256 449.352 73.8315 448.559 73.8315C447.966 73.8315 447.667 74.2253 447.667 75.0185V75.6168ZM450.345 95.5563C450.944 94.9621 450.545 94.1703 449.159 93.1768C448.76 93.1768 448.559 93.1768 448.559 93.1768C448.366 93.1768 448.265 93.2776 448.265 93.4712C448.265 93.6715 448.212 93.771 448.113 93.771C448.014 93.771 447.966 93.8705 447.966 94.0695C447.567 95.063 447.766 95.8561 448.559 96.449H448.859C449.851 96.449 450.345 96.1546 450.345 95.5563ZM449.752 83.0578C449.951 83.2527 450.245 83.3522 450.644 83.3522C451.237 83.3522 451.736 83.1519 452.13 82.758C452.529 82.3587 452.529 81.9649 452.13 81.5669C452.13 81.173 451.837 80.9727 451.237 80.9727C450.644 80.9727 450.245 81.2725 450.052 81.8654C449.851 82.0657 449.752 82.4596 449.752 83.0578ZM488.744 95.8561C488.543 95.6558 488.25 95.5563 487.851 95.5563C487.257 95.5563 486.758 95.7553 486.364 96.1546V97.3416C486.758 97.7409 487.058 97.9399 487.257 97.9399C487.851 97.9399 488.35 97.6414 488.744 97.0472V95.8561ZM452.13 94.0695C452.73 94.0695 453.028 93.771 453.028 93.1768C453.028 92.3836 452.529 91.9857 451.537 91.9857C450.744 91.9857 450.545 92.1847 450.944 92.5786C450.944 93.5707 451.338 94.0695 452.13 94.0695ZM453.322 91.6859C453.722 91.6859 453.921 91.491 453.921 91.0931C453.921 90.0996 453.422 89.6062 452.43 89.6062C452.036 89.6062 451.837 89.8011 451.837 90.1991C451.837 91.1926 452.33 91.6859 453.322 91.6859Z" fill="#0F0F0F"/>
</svg>
